<?xml version="1.0" encoding="UTF-8" standalone="no"?>
<svg
   xmlns:dc="http://purl.org/dc/elements/1.1/"
   xmlns:cc="http://creativecommons.org/ns#"
   xmlns:rdf="http://www.w3.org/1999/02/22-rdf-syntax-ns#"
   xmlns:svg="http://www.w3.org/2000/svg"
   xmlns="http://www.w3.org/2000/svg"
   version="1.1"
   viewBox="0 0 54.649308 6.316099"
   height="23.871868"
   width="206.54857">
  <metadata
     id="metadata5">
    <rdf:RDF>
      <cc:Work
         rdf:about="">
        <dc:format>image/svg+xml</dc:format>
        <dc:type
           rdf:resource="http://purl.org/dc/dcmitype/StillImage" />
        <dc:title></dc:title>
      </cc:Work>
    </rdf:RDF>
  </metadata>
  <g
     transform="matrix(0.70046564,0,0,0.70046564,-16.904353,-51.383369)"
     style="fill:#0366d6;fill-opacity:1;stroke-width:0.26458332">
    <g aria-label="GOURMET">
      <path
         d="m 31.333923,77.902617 h 0.6223 v 3.3274 q -0.5842,0.5588 -1.4224,0.8509 -0.8255,0.2921 -1.7526,0.2921 -1.3208,0 -2.3876,-0.5842 -1.0541,-0.5842 -1.6637,-1.6129 -0.5969,-1.0287 -0.5969,-2.3114 0,-1.2827 0.5969,-2.3114 0.6096,-1.0287 1.6637,-1.6129 1.0668,-0.5842 2.4003,-0.5842 0.9779,0 1.7907,0.3175 0.8255,0.3048 1.4097,0.9017 l -0.4064,0.4318 q -0.5588,-0.5588 -1.2573,-0.8001 -0.6858,-0.254 -1.524,-0.254 -1.143,0 -2.0701,0.508 -0.9144,0.508 -1.4351,1.4097 -0.5207,0.889 -0.5207,1.9939 0,1.0922 0.5207,1.9939 0.5334,0.889 1.4478,1.4097 0.9144,0.508 2.0574,0.508 1.524,0 2.5273,-0.8128 z"/>
      <path
         d="m 37.387853,82.373017 q -1.3081,0 -2.3622,-0.5842 -1.0541,-0.5969 -1.6637,-1.6256 -0.5969,-1.0287 -0.5969,-2.2987 0,-1.27 0.5969,-2.2987 0.6096,-1.0287 1.6637,-1.6129 1.0541,-0.5969 2.3622,-0.5969 1.3081,0 2.3622,0.5842 1.0541,0.5842 1.651,1.6129 0.6096,1.0287 0.6096,2.3114 0,1.2827 -0.6096,2.3114 -0.5969,1.0287 -1.651,1.6129 -1.0541,0.5842 -2.3622,0.5842 z m 0,-0.5969 q 1.1176,0 2.0193,-0.508 0.9017,-0.508 1.4224,-1.397 0.5207,-0.9017 0.5207,-2.0066 0,-1.1049 -0.5207,-1.9939 -0.5207,-0.9017 -1.4224,-1.4097 -0.9017,-0.508 -2.0193,-0.508 -1.1176,0 -2.032,0.508 -0.9017,0.508 -1.4224,1.4097 -0.5207,0.889 -0.5207,1.9939 0,1.1049 0.5207,2.0066 0.5207,0.889 1.4224,1.397 0.9144,0.508 2.032,0.508 z"/>
      <path
         d="m 46.546339,82.373017 q -1.6891,0 -2.6289,-0.9779 -0.9271,-0.9779 -0.9271,-2.8575 v -5.1181 h 0.6477 v 5.0927 q 0,1.6383 0.7493,2.4511 0.7493,0.8128 2.1717,0.8128 1.4097,0 2.159,-0.8128 0.7493,-0.8128 0.7493,-2.4511 v -5.0927 h 0.6477 v 5.1181 q 0,1.8796 -0.9398,2.8575 -0.9398,0.9779 -2.6289,0.9779 z"/>
      <path
         d="m 58.118817,82.309517 -2.1209,-2.9718 q -0.4699,0.0635 -0.8636,0.0635 h -2.54 v 2.9083 h -0.6477 v -8.89 h 3.1877 q 1.6764,0 2.6289,0.8001 0.9525,0.7874 0.9525,2.1971 0,1.0541 -0.5461,1.778 -0.5334,0.7112 -1.5367,1.0033 l 2.2225,3.1115 z m -2.9845,-3.4798 q 1.4224,0 2.1717,-0.6223 0.7493,-0.635 0.7493,-1.7907 0,-1.1557 -0.7493,-1.778 -0.7493,-0.635 -2.1717,-0.635 h -2.54 v 4.826 z"/>
      <path
         d="m 68.316322,82.309517 -0.0127,-7.6073 -3.7211,6.4262 h -0.3175 l -3.7211,-6.4008 v 7.5819 h -0.635 v -8.89 h 0.5461 l 3.9751,6.8707 3.9751,-6.8707 h 0.5334 l 0.0127,8.89 z"/>
      <path
         d="m 76.981887,81.725317 v 0.5842 h -6.134099 v -8.89 h 5.943599 v 0.5842 h -5.2959 v 3.5052 h 4.7371 v 0.5715 h -4.7371 v 3.6449 z"/>
      <path
         d="m 79.86697,74.003717 h -3.2004 v -0.5842 h 7.0485 v 0.5842 h -3.2004 v 8.3058 h -0.6477 z"/>
    </g>
    <g aria-label="SSR">
      <path
         d="m 87.336711,80.061262 q -0.724605,0 -1.40335,-0.220133 -0.669572,-0.229306 -1.054805,-0.587022 l 0.339372,-0.715434 q 0.366889,0.3302 0.935567,0.541162 0.57785,0.201788 1.183216,0.201788 0.797984,0 1.192389,-0.265994 0.394406,-0.275167 0.394406,-0.724606 0,-0.3302 -0.220133,-0.531988 -0.210962,-0.210962 -0.531989,-0.321028 -0.311856,-0.110067 -0.889706,-0.24765 -0.724605,-0.174272 -1.174044,-0.348545 -0.440267,-0.174272 -0.761295,-0.531989 -0.311855,-0.366888 -0.311855,-0.981427 0,-0.513645 0.265994,-0.926395 0.275167,-0.41275 0.8255,-0.6604 0.550333,-0.24765 1.366661,-0.24765 0.568678,0 1.119011,0.146756 0.550334,0.146755 0.944739,0.421922 l -0.302683,0.733778 q -0.403578,-0.256822 -0.862189,-0.385234 -0.458611,-0.137583 -0.898878,-0.137583 -0.779639,0 -1.174044,0.284339 -0.385234,0.284339 -0.385234,0.733778 0,0.3302 0.220134,0.541161 0.220133,0.201789 0.541161,0.321028 0.3302,0.110066 0.889705,0.238477 0.724606,0.174273 1.164873,0.348545 0.440266,0.174272 0.752122,0.531989 0.321028,0.357716 0.321028,0.963083 0,0.504472 -0.275167,0.926395 -0.275167,0.41275 -0.834672,0.6604 -0.559506,0.238477 -1.375834,0.238477 z"/>
      <path
         d="m 93.033521,80.061262 q -0.724605,0 -1.40335,-0.220133 -0.669572,-0.229306 -1.054805,-0.587022 l 0.339372,-0.715434 q 0.366889,0.3302 0.935567,0.541162 0.57785,0.201788 1.183216,0.201788 0.797984,0 1.192389,-0.265994 0.394406,-0.275167 0.394406,-0.724606 0,-0.3302 -0.220134,-0.531988 -0.210961,-0.210962 -0.531989,-0.321028 -0.311855,-0.110067 -0.889705,-0.24765 -0.724606,-0.174272 -1.174045,-0.348545 -0.440266,-0.174272 -0.761294,-0.531989 -0.311856,-0.366888 -0.311856,-0.981427 0,-0.513645 0.265995,-0.926395 0.275167,-0.41275 0.8255,-0.6604 0.550333,-0.24765 1.366661,-0.24765 0.568678,0 1.119011,0.146756 0.550333,0.146755 0.944739,0.421922 l -0.302683,0.733778 q -0.403578,-0.256822 -0.862189,-0.385234 -0.458611,-0.137583 -0.898878,-0.137583 -0.779639,0 -1.174044,0.284339 -0.385234,0.284339 -0.385234,0.733778 0,0.3302 0.220134,0.541161 0.220133,0.201789 0.541161,0.321028 0.3302,0.110066 0.889705,0.238477 0.724606,0.174273 1.164872,0.348545 0.440267,0.174272 0.752123,0.531989 0.321027,0.357716 0.321027,0.963083 0,0.504472 -0.275166,0.926395 -0.275167,0.41275 -0.834672,0.6604 -0.559506,0.238477 -1.375834,0.238477 z"/>
      <path
         d="m 101.1518,79.987885 -1.385008,-1.972028 q -0.256822,0.01834 -0.403578,0.01834 H 97.77642 v 1.953684 h -0.917222 v -6.420556 h 2.504016 q 1.247426,0 1.962856,0.596194 0.71543,0.596195 0.71543,1.641828 0,0.74295 -0.36689,1.265767 -0.36688,0.522817 -1.04563,0.761294 l 1.52259,2.155473 z m -1.816102,-2.733323 q 0.871362,0 1.329972,-0.376061 0.45861,-0.376061 0.45861,-1.07315 0,-0.697089 -0.45861,-1.063978 -0.45861,-0.376061 -1.329972,-0.376061 H 97.77642 v 2.88925 z"/>
    </g>
  </g>
</svg>
