<?xml version="1.0" encoding="UTF-8"?>
<svg width="290" height="130" version="1.1" viewBox="0 0 76.729166 34.395835" xmlns="http://www.w3.org/2000/svg" xmlns:cc="http://creativecommons.org/ns#" xmlns:dc="http://purl.org/dc/elements/1.1/" xmlns:rdf="http://www.w3.org/1999/02/22-rdf-syntax-ns#">
<metadata>
<rdf:RDF>
<cc:Work rdf:about="">
<dc:format>image/svg+xml</dc:format>
<dc:type rdf:resource="http://purl.org/dc/dcmitype/StillImage"/>
<dc:title/>
</cc:Work>
</rdf:RDF>
</metadata>
<g transform="translate(0 -262.6)" fill="#fff">
<g transform="translate(-.045846 -21.828)">
<path d="m9.9586 290.41h0.76646v4.0982q-0.71953 0.68825-1.7519 1.048-1.0167 0.35976-2.1586 0.35976-1.6268 0-2.9407-0.71953-1.2983-0.71954-2.0491-1.9865-0.73518-1.267-0.73518-2.8469t0.73518-2.8468q0.75082-1.267 2.0491-1.9866 1.3139-0.71953 2.9563-0.71953 1.2044 0 2.2055 0.39105 1.0167 0.37541 1.7363 1.1106l-0.50055 0.53183q-0.68825-0.68825-1.5486-0.98545-0.84467-0.31284-1.877-0.31284-1.4078 0-2.5497 0.62568-1.1262 0.62568-1.7676 1.7363-0.64132 1.0949-0.64132 2.4558 0 1.3452 0.64132 2.4558 0.65697 1.0949 1.7832 1.7363 1.1262 0.62569 2.534 0.62569 1.877 0 3.1128-1.0011z"/>
<path d="m17.625 295.91q-1.6111 0-2.9094-0.71953-1.2983-0.73518-2.0491-2.0022-0.73518-1.267-0.73518-2.8312 0-1.5642 0.73518-2.8312 0.75082-1.267 2.0491-1.9865 1.2983-0.73518 2.9094-0.73518 1.6111 0 2.9094 0.71953 1.2983 0.71954 2.0335 1.9866 0.75082 1.267 0.75082 2.8468t-0.75082 2.8469q-0.73518 1.267-2.0335 1.9865-1.2983 0.71953-2.9094 0.71953zm0-0.73517q1.3765 0 2.4871-0.62569 1.1106-0.62568 1.7519-1.7206 0.64132-1.1106 0.64132-2.4714t-0.64132-2.4558q-0.64132-1.1106-1.7519-1.7363-1.1106-0.62568-2.4871-0.62568-1.3765 0-2.5027 0.62568-1.1106 0.62568-1.7519 1.7363-0.64133 1.0949-0.64133 2.4558t0.64133 2.4714q0.64132 1.0949 1.7519 1.7206 1.1262 0.62569 2.5027 0.62569z"/>
<path d="m29.114 295.91q-2.0804 0-3.2379-1.2044-1.1419-1.2044-1.1419-3.5195v-6.3038h0.79775v6.2725q0 2.0178 0.92288 3.0189 0.92288 1.0011 2.6748 1.0011 1.7363 0 2.6592-1.0011 0.92288-1.0011 0.92288-3.0189v-6.2725h0.79774v6.3038q0 2.315-1.1575 3.5195-1.1575 1.2044-3.2379 1.2044z"/>
<path d="m43.577 295.83-2.6122-3.6602q-0.57876 0.0782-1.0637 0.0782h-3.1284v3.582h-0.79775v-10.949h3.9262q2.0648 0 3.2379 0.98545 1.1732 0.96981 1.1732 2.7061 0 1.2983-0.67261 2.1899-0.65697 0.87595-1.8927 1.2357l2.7374 3.8323zm-3.6759-4.2859q1.7519 0 2.6748-0.76646 0.92288-0.78211 0.92288-2.2055 0-1.4234-0.92288-2.1899-0.92288-0.7821-2.6748-0.7821h-3.1284v5.944z"/>
<path d="m56.346 295.83-0.01564-9.3696-4.5831 7.9149h-0.39105l-4.5831-7.8836v9.3383h-0.7821v-10.949h0.67261l4.896 8.4624 4.896-8.4624h0.65697l0.01564 10.949z"/>
<path d="m67.229 295.11v0.71953h-7.5551v-10.949h7.3205v0.71954h-6.5227v4.3172h5.8345v0.7039h-5.8345v4.4893z"/>
<path d="m70.992 285.6h-3.9418v-0.71954h8.6813v0.71954h-3.9418v10.23h-0.79774z"/>
</g>
<g transform="translate(-.045846 15.686)">
<path d="m38.346 277.88q-1.2201 0-2.3463-0.39106-1.1106-0.39105-1.7206-1.0324l0.45362-0.8916q0.5944 0.5944 1.5798 0.96981 0.98545 0.35977 2.0335 0.35977 1.4704 0 2.2055-0.53183 0.73518-0.54748 0.73518-1.4078 0-0.65697-0.40669-1.048-0.39105-0.39105-0.96981-0.5944-0.57876-0.21899-1.6111-0.46926-1.2357-0.31284-1.9709-0.5944-0.73518-0.2972-1.267-0.89159-0.51619-0.5944-0.51619-1.6111 0-0.82903 0.43798-1.5016 0.43798-0.68825 1.3452-1.095 0.90724-0.40669 2.2525-0.40669 0.93852 0 1.8301 0.26591 0.90724 0.25028 1.5642 0.7039l-0.39105 0.92288q-0.68825-0.45362-1.4704-0.67261-0.7821-0.23463-1.5329-0.23463-1.4391 0-2.1742 0.56311-0.71954 0.54747-0.71954 1.4234 0 0.65697 0.39105 1.0637 0.40669 0.39105 1.0011 0.61004 0.61004 0.20335 1.6268 0.45362 1.2044 0.2972 1.9396 0.5944 0.75082 0.28156 1.267 0.87595 0.51619 0.57876 0.51619 1.5798 0 0.82903-0.45362 1.5173-0.43798 0.67261-1.3609 1.0793-0.92288 0.39106-2.2681 0.39106z"/>
<path d="m47.411 277.88q-1.2201 0-2.3463-0.39106-1.1106-0.39105-1.7206-1.0324l0.45362-0.8916q0.5944 0.5944 1.5798 0.96981 0.98545 0.35977 2.0335 0.35977 1.4704 0 2.2055-0.53183 0.73518-0.54748 0.73518-1.4078 0-0.65697-0.40669-1.048-0.39105-0.39105-0.96981-0.5944-0.57876-0.21899-1.6111-0.46926-1.2357-0.31284-1.9709-0.5944-0.73518-0.2972-1.267-0.89159-0.51619-0.5944-0.51619-1.6111 0-0.82903 0.43798-1.5016 0.43798-0.68825 1.3452-1.095 0.90724-0.40669 2.2525-0.40669 0.93852 0 1.8301 0.26591 0.90724 0.25028 1.5642 0.7039l-0.39105 0.92288q-0.68825-0.45362-1.4704-0.67261-0.7821-0.23463-1.5329-0.23463-1.4391 0-2.1742 0.56311-0.71954 0.54747-0.71954 1.4234 0 0.65697 0.39105 1.0637 0.40669 0.39105 1.0011 0.61004 0.61004 0.20335 1.6268 0.45362 1.2044 0.2972 1.9396 0.5944 0.75082 0.28156 1.267 0.87595 0.51619 0.57876 0.51619 1.5798 0 0.82903-0.45362 1.5173-0.43798 0.67261-1.3609 1.0793-0.92288 0.39106-2.2681 0.39106z"/>
<path d="m60.934 277.78-2.5027-3.5195q-0.42233 0.0469-0.87595 0.0469h-2.9407v3.4725h-1.1575v-10.949h4.0982q2.096 0 3.2848 1.0011 1.1888 1.0011 1.1888 2.753 0 1.2826-0.65697 2.1742-0.64132 0.87596-1.8458 1.267l2.6748 3.7541zm-3.41-4.458q1.6268 0 2.4871-0.71954 0.86032-0.71953 0.86032-2.0178 0-1.3296-0.86032-2.0335-0.86031-0.71954-2.4871-0.71954h-2.9094v5.4904z"/>
<path d="m23.34 263.59a8.7201 8.7201 0 0 0 -8.7203 8.7203 8.7201 8.7201 0 0 0 8.7203 8.7199 8.7201 8.7201 0 0 0 8.7199 -8.7199 8.7201 8.7201 0 0 0 -8.7199 -8.7203zm-2.8556 6.0682a0.5801 0.5801 0 0 1 0.41502 0.99846l-1.6672 1.6468 1.6672 1.6468a0.5801 0.5801 0 1 1 -0.81493 0.8255l-2.0857-2.0596a0.5801 0.5801 0 0 1 -0.01586 -0.0162 0.58012 0.58012 0 0 1 -0.0015 -2e-3 0.5801 0.5801 0 0 1 0.08535 -0.87497l2.0177-1.9924a0.5801 0.5801 0 0 1 0.39991 -0.17296zm5.6025 0a0.5801 0.5801 0 0 1 0.41728 0.17296l2.0192 1.9943a0.5801 0.5801 0 0 1 0.06646 0.89083l-0.0057 6e-3a0.58012 0.58012 0 0 1 -0.0011 1e-3l-7.54e-4 3.9e-4 -2.0781 2.0524a0.5801 0.5801 0 1 1 -0.81492 -0.82552l1.6672-1.6468-1.6672-1.6468a0.5801 0.5801 0 0 1 0.39765 -0.99846zm-1.8194 0.19675a0.5801 0.5801 0 0 1 0.04041 0 0.5801 0.5801 0 0 1 0.49885 0.83909l-1.7964 3.7231a0.5801 0.5801 0 1 1 -1.0449 -0.50414l1.7964-3.7231a0.5801 0.5801 0 0 1 0.50565 -0.33496z"/>
</g>
</g>
</svg>
