<?xml version="1.0" ?><svg data-name="010" height="128" id="_010" viewBox="0 0 128 128" width="128" xmlns="http://www.w3.org/2000/svg" xmlns:xlink="http://www.w3.org/1999/xlink"><defs><clipPath id="clip-path"><path d="M13.20134,40.65928a27.78554,27.78554,0,0,0-.11667,31.81551,18.23589,18.23589,0,0,1,3.18959,11.3637,34.27871,34.27871,0,0,0,53.02029,30.54578,18.89625,18.89625,0,0,1,15.79932-2.34148c14.25888,4.21427,31.35334-4.10393,34.08781-24.48725a15.37645,15.37645,0,0,0-1.15038-7.3461,19.059,19.059,0,0,1,.17881-13.69473,26.38283,26.38283,0,0,0-18.02166-35.09255A33.80078,33.80078,0,0,1,82.52132,19.45367a26.85884,26.85884,0,0,0-43.86287,2.79707,18.22589,18.22589,0,0,1-10.585,7.75585A27.62966,27.62966,0,0,0,13.20134,40.65928Z" style="fill:#c9c1f5;opacity:0.30000000000000004"/></clipPath></defs><title/><path d="M13.20134,40.65928a27.78554,27.78554,0,0,0-.11667,31.81551,18.23589,18.23589,0,0,1,3.18959,11.3637,34.27871,34.27871,0,0,0,53.02029,30.54578,18.89625,18.89625,0,0,1,15.79932-2.34148c14.25888,4.21427,31.35334-4.10393,34.08781-24.48725a15.37645,15.37645,0,0,0-1.15038-7.3461,19.059,19.059,0,0,1,.17881-13.69473,26.38283,26.38283,0,0,0-18.02166-35.09255A33.80078,33.80078,0,0,1,82.52132,19.45367a26.85884,26.85884,0,0,0-43.86287,2.79707,18.22589,18.22589,0,0,1-10.585,7.75585A27.62966,27.62966,0,0,0,13.20134,40.65928Z" style="fill:#c9c1f5;opacity:0.30000000000000004"/><g style="clip-path:url(#clip-path)"><path d="M126,125.93842A63.77958,63.77958,0,0,0,2,123.781V127H126Z" style="fill:#ff99b1"/><path d="M63.74963,76A63.79869,63.79869,0,0,0,2,123.78094V127H7.65411A63.75777,63.75777,0,0,1,111.32159,97.31622,63.60339,63.60339,0,0,0,63.74963,76Z" style="fill:#fff;opacity:0.5"/><path d="M126,127v-1.07684a63.75448,63.75448,0,0,0-21.73486-35.3996,63.46777,63.46777,0,0,1,11.11,35.9632c0,.17212-.01117.34149-.01251.51324Z" style="fill:#750000;opacity:0.15"/><g style="opacity:0.5"><path d="M103.89038,90.55328c-19.53229-13.629-51.19513-7.548-74.05164,15.30853A81.717,81.717,0,0,0,14.48944,127H35.80951c2.28192-2.65277,4.71429-5.2843,7.29871-7.86871C64.94305,97.29645,90.084,85.9295,103.89038,90.55328Z" style="fill:#fedbc1"/><path d="M63.38086,127H88.5827c14.46436-16.56213,22.93756-29.64484,20.261-32.32135C105.4892,91.32416,85.794,105.47656,63.38086,127Z" style="fill:#fedbc1"/></g><path d="M108.84973,127h11.475c.55731-10.15826-1.74115-19.71667-7.10016-27.39679C115.53766,106.50983,113.84869,116.25311,108.84973,127Z" style="fill:#fedbc1;opacity:0.5"/><path d="M126,128H2a.99942.99942,0,0,1-1-1v-3.21875a.98649.98649,0,0,1,.03223-.25,64.77972,64.77972,0,0,1,125.94434,2.19141,1.00071,1.00071,0,0,1,.02344.21582V127A.99942.99942,0,0,1,126,128ZM3,126H124.98926A62.77965,62.77965,0,0,0,3,123.90918Z" style="fill:#6d6daa"/></g><path d="M54.931,72.93141h0c-.80364,6.89872.91346,13.92836,4.42777,18.12817l5.04759,6.03193L69.454,91.05958c3.51432-4.19981,5.23141-11.22945,4.42777-18.12817h0L72,60H57Z" style="fill:#ff9797"/><path d="M59.26746,70.291a28.66905,28.66905,0,0,0-.71179,6.49456c0,7.49936,5.8507,13.57882,5.8507,13.57882s5.8507-6.07946,5.8507-13.57882a28.66905,28.66905,0,0,0-.71179-6.49456L68,62.5H61Z" style="fill:#fff27d"/><path d="M61.72942,70.291a14.93419,14.93419,0,0,0-.37078,3.38312c0,3.90654,3.04773,7.07343,3.04773,7.07343s3.04773-3.16689,3.04773-7.07343A14.93419,14.93419,0,0,0,67.0833,70.291L66,64.78731H63Z" style="fill:#fff"/><path d="M52.41372,59.3437,51.8436,48.99642c-4.84485,2.30622-8.057,6.35063-8.36581,10.91689l-.56861,8.408c-.09754,1.44262,2.42571,1.9723,3.24649.67641a26.46857,26.46857,0,0,1,7.16217-7.98237A2.31492,2.31492,0,0,1,52.41372,59.3437Z" style="fill:#c9c1f5"/><path d="M45.52091,69.52642l.47957-7.09046c.25616-3.78753,2.53-7.19953,6.056-9.57489l-.21289-3.86467c-4.8449,2.30623-8.05694,6.35063-8.3658,10.9169l-.56867,8.408C42.83021,69.48916,44.45846,70.0393,45.52091,69.52642Z" style="fill:#fff;opacity:0.5"/><path d="M85.33493,59.91331c-.30877-4.56635-3.521-8.61051-8.366-10.91689l-.57,10.34728a2.31488,2.31488,0,0,1-.90412,1.67151,26.46993,26.46993,0,0,1,7.16225,7.98262c.82079,1.29572,3.344.76622,3.24649-.67641Z" style="fill:#c9c1f5"/><path d="M76.9689,48.9964,76.745,53.06262c3.62981,2.37916,5.97269,5.846,6.23315,9.698l.46263,6.83959c1.05932.39263,2.53806-.166,2.46287-1.27883l-.56872-8.40809C85.02615,55.34693,81.814,51.30278,76.9689,48.9964Z" style="fill:#fff;opacity:0.5"/><path d="M62.01745,54.65128l-.00015-.00005C56.40649,54.20708,51.914,52.394,51.914,50.2219l-.00287-.00164.50261,9.12344c-.00005,2.1579,4.26494,3.96039,9.60368,4.41917Z" style="fill:#9eb2cc"/><path d="M66.79526,63.76287c5.33858-.45894,9.60363-2.26127,9.60373-4.41922l.50251-9.12344-.00293.00169c-.00005,2.17207-4.49241,3.98513-10.10326,4.42933Z" style="fill:#9eb2cc"/><path d="M66.79526,63.76287c5.33858-.45894,9.60363-2.26127,9.60373-4.41922l.50251-9.12344-.00293.00169c-.00005,2.17207-4.49241,3.98513-10.10326,4.42933Z" style="fill:#9eb2cc"/><path d="M64.40641,6.4297A38.19508,38.19508,0,0,0,51.72,30.443a50.04106,50.04106,0,0,0-.37677,9.46885l.5679,10.3084.00287.00164c-.00005,2.17207,4.49246,3.98518,10.10326,4.42933l.00015.00005V50.624a2.38891,2.38891,0,0,1,4.77782,0l.00005,4.02721C72.40617,54.207,76.89853,52.394,76.89858,50.2219l.00293-.00169.5679-10.3083a50.03573,50.03573,0,0,0-.37672-9.4688A38.19544,38.19544,0,0,0,64.40641,6.4297Z" style="fill:#eef6ff"/><path d="M64.40636,18.52429c3.408.00008,6.38636-.89453,8.014-2.225a35.72382,35.72382,0,0,0-8.014-9.86964,35.72477,35.72477,0,0,0-8.01407,9.86974C58.01991,17.62984,60.99825,18.52429,64.40636,18.52429Z" style="fill:#c9c1f5"/><path d="M64.29735,7.50776q.05343-.55368.109-1.07805L64.397,6.438q-.35883.51988-.703,1.06974c-.10788.172-.21125.35259-.317.52884-.11948.19924-.24045.39535-.35706.59982-.142.24866-.27884.5061-.41665.76226-.0736.13714-.149.27089-.22136.41013-.15962.3063-.3139.62091-.46751.93722-.0447.09233-.09084.1824-.135.27561-.16932.35572-.33324.7194-.49491,1.08709-.02428.05538-.04922.10958-.07344.16521q-.2589.59594-.50348,1.21247l-.03264.08119q-.25682.6476-.49794,1.31625l-.00708.0195q-.24682.68363-.47716,1.38764l-.00031.001c-.15541.47464-.28377.9789-.42778,1.46606a16.39065,16.39065,0,0,0,4.31806.73927c.032-.74224.06308-1.49152.099-2.20481V16.291q.03557-.70411.07344-1.38764l.00108-.01955q.03726-.66823.07663-1.31619l.005-.08119q.03772-.61558.07745-1.21252l.01129-.16516c.02484-.36768.05009-.73136.07616-1.08714.00672-.09315.01386-.18323.02079-.27556.02356-.31631.04737-.63092.0719-.93722.01114-.13924.02274-.273.034-.41013.0212-.25616.04224-.5136.0641-.76221.01791-.20452.03654-.40063.05492-.59987C64.26492,7.86035,64.28077,7.67975,64.29735,7.50776Z" style="fill:#fff;opacity:0.5"/><path d="M64.40631,6.42971l.00072-.007L64.397,6.438Z" style="fill:#fff;opacity:0.75"/><path d="M59.26471,17.75807a62.365,62.365,0,0,0-2.32116,12.67807,84.83636,84.83636,0,0,0-.22167,9.46885l.33417,10.3084.1182,3.64731a27.9641,27.9641,0,0,0,4.84305.79054l.00015.00005,1.25871-4.4379L63.22479,39.905c-.01576-3.16251-.00436-6.33688.03408-9.4689.05189-4.228.16465-8.24442.3239-11.93875A16.39065,16.39065,0,0,1,59.26471,17.75807Z" style="fill:#fff;opacity:0.75"/><g style="opacity:0.5"><path d="M62.01745,54.65129l-.00015-.00005a27.9641,27.9641,0,0,1-4.84305-.79054l.17743,5.47608c.00005,1.92592,2.00311,3.5616,4.66578,4.21875Z" style="fill:#fff"/></g><path d="M77.09343,30.43625a40.00543,40.00543,0,0,0-5.48492-15.53434l-.01-.01619q-.41133-.66957-.848-1.31883c-.01793-.02664-.03636-.05277-.05429-.07933q-.41764-.61644-.857-1.21394c-.04065-.05516-.08289-.10909-.1239-.16411-.27494-.36792-.554-.73192-.842-1.088-.075-.093-.153-.18284-.22885-.275-.2613-.31653-.5239-.63147-.79529-.93791-.12172-.13776-.24852-.27-.37228-.40574-.23575-.258-.47019-.51722-.7132-.76763-.19321-.19938-.39391-.39057-.59177-.58494-.18465-.18117-.36538-.36676-.55388-.54357q-.59293-.55667-1.211-1.08395l-.00007.00007q.364.52641.71247,1.08388c.11091.17681.21724.3624.3259.54357.11635.19438.23444.38556.34811.58494.143.25041.28089.50967.4196.76763.0728.13573.14742.268.219.40574.15968.30644.31414.62138.46787.93791.04464.09218.09058.182.13471.275.16934.35609.33352.72009.4953,1.088.0241.055.04892.10895.07287.16411q.25923.59674.50416,1.21394l.03194.07933q.25727.649.49886,1.31883l.006.01619a60.2877,60.2877,0,0,1,3.22688,15.53434,84.8078,84.8078,0,0,1,.22159,9.46876l-.3341,10.30832-.29563,9.12341c-.00007,2.158-2.50925,3.96032-5.65,4.41926h.98349c5.33852-.45894,9.60362-2.26131,9.60369-4.41926l.50249-9.12341L77.47013,39.905A50.03253,50.03253,0,0,0,77.09343,30.43625Z" style="fill:#2c4b75;opacity:0.2"/><circle cx="64.40628" cy="31.50245" r="4.75677" style="fill:#96d7ff" transform="translate(-3.41144 54.76897) rotate(-45)"/><path d="M63.56537,30.6616a4.75267,4.75267,0,0,1,5.21633-1.0119,4.75679,4.75679,0,1,0-6.22823,6.22823A4.7529,4.7529,0,0,1,63.56537,30.6616Z" style="fill:#2c4b75;opacity:0.2"/><path d="M61.04271,28.13894a4.73757,4.73757,0,0,0,3.79872,8.07849v-9.4301A4.72585,4.72585,0,0,0,61.04271,28.13894Z" style="fill:#fff;opacity:0.5"/><path d="M64.40625,98.0918a.99735.99735,0,0,1-.7666-.3584L58.5918,91.70117c-3.71191-4.43652-5.49512-11.67285-4.6543-18.88477a.98916.98916,0,0,1,1.10938-.87793.99964.99964,0,0,1,.877,1.10938c-.7666,6.584.88184,13.40234,4.20117,17.37012l4.28125,5.11523L68.6875,90.418c3.31934-3.9668,4.96875-10.78516,4.20117-17.37012a.99964.99964,0,0,1,.877-1.10937.987.987,0,0,1,1.10938.87793c.84082,7.21289-.94238,14.4502-4.6543,18.88477L65.17285,97.7334A.99735.99735,0,0,1,64.40625,98.0918Z" style="fill:#6d6daa"/><path d="M44.667,70.73535a3.33433,3.33433,0,0,1-1.02441-.16113,2.30572,2.30572,0,0,1-1.73145-2.32031l.56836-8.4082c.3291-4.85254,3.66895-9.24609,8.93457-11.75293a.99917.99917,0,0,1,1.42773.84863l.57031,10.34766c.001.01758.002.03613.002.05469a1.47836,1.47836,0,0,0,.57324.92871,1.00106,1.00106,0,0,1-.11523,1.5752A25.16312,25.16312,0,0,0,47,69.5332,2.67765,2.67765,0,0,1,44.667,70.73535Zm6.26465-20.125c-3.82422,2.24512-6.20508,5.666-6.45605,9.37012l-.56836,8.4082c-.00879.12988.22949.24316.35645.28516a.962.962,0,0,0,1.04688-.21094,29.01478,29.01478,0,0,1,6.5459-7.62988,2.79866,2.79866,0,0,1-.44238-1.458Z" style="fill:#6d6daa"/><path d="M84.14551,70.73535a2.67765,2.67765,0,0,1-2.333-1.20215,25.16473,25.16473,0,0,0-6.87207-7.68555,1.00106,1.00106,0,0,1-.11523-1.5752,1.48318,1.48318,0,0,0,.57422-.93066l.57129-10.40039a.99917.99917,0,0,1,1.42773-.84863c5.2666,2.50684,8.60645,6.90039,8.93457,11.75293l.56836,8.4082a2.30572,2.30572,0,0,1-1.73145,2.32031A3.33433,3.33433,0,0,1,84.14551,70.73535ZM76.958,60.834A29.00771,29.00771,0,0,1,83.502,68.46289a.96372.96372,0,0,0,1.04688.21094c.127-.042.36523-.15527.35645-.28516l-.56836-8.4082h0c-.25-3.7041-2.63184-7.125-6.45508-9.37012l-.48437,8.78809A2.68905,2.68905,0,0,1,76.958,60.834Z" style="fill:#6d6daa"/><path d="M62.01855,64.7627c-.02832,0-.05762-.001-.08691-.00391-5.23535-.4502-10.51758-2.29883-10.51758-5.415l-.501-9.06836a1.00118,1.00118,0,1,1,2.001-.05371c0,1.10547,3.26953,2.96484,9.18262,3.43262a1.0002,1.0002,0,1,1-.1582,1.99414c-3.3623-.2666-6.74219-1.0625-8.85645-2.36328l.33008,6.00391c.002,1.14844,3.09668,2.99609,8.69141,3.47754a.9999.9999,0,0,1-.085,1.99609Z" style="fill:#6d6daa"/><path d="M66.79395,64.7627a.9999.9999,0,0,1-.085-1.99609c5.59473-.48145,8.68945-2.3291,8.69043-3.42285l.332-6.05859c-2.11426,1.30078-5.49512,2.09668-8.85742,2.36328a1.0002,1.0002,0,1,1-.1582-1.99414c5.91309-.46777,9.18262-2.32715,9.18262-3.43262a1.00117,1.00117,0,1,1,2.001.05273l-.502,9.124c.001,3.06152-5.28223,4.91016-10.5166,5.36035C66.85156,64.76172,66.82227,64.7627,66.79395,64.7627Z" style="fill:#6d6daa"/><path d="M66.79395,55.65137a1.0001,1.0001,0,0,1-.07812-1.99707c5.91309-.46777,9.18262-2.32715,9.18262-3.43262a.95661.95661,0,0,1,.00879-.12988l.56445-10.23437a49.09084,49.09084,0,0,0-.37012-9.2793A37.12091,37.12091,0,0,0,64.40625,7.75781,37.12091,37.12091,0,0,0,52.71094,30.57813a49.29312,49.29312,0,0,0-.37012,9.2793l.56445,10.23438a.95661.95661,0,0,1,.00879.12988c0,1.10547,3.26953,2.96484,9.18262,3.43262a1.0002,1.0002,0,1,1-.1582,1.99414c-5.43164-.43066-10.91211-2.24414-11.02246-5.332a.28967.28967,0,0,1-.00293-.041L50.34473,39.9668a51.24748,51.24748,0,0,1,.38379-9.65723A38.98076,38.98076,0,0,1,63.75781,5.668a.99988.99988,0,0,1,1.29688,0A38.98081,38.98081,0,0,1,78.084,30.30859a51.14375,51.14375,0,0,1,.38379,9.6582l-.56836,10.30762a.28967.28967,0,0,1-.00293.041c-.1084,3.08887-5.58984,4.90234-11.02246,5.333C66.84668,55.65039,66.82031,55.65137,66.79395,55.65137Z" style="fill:#6d6daa"/><path d="M64.40625,19.52441c-3.53711,0-6.76953-.916-8.64648-2.4502a1.00046,1.00046,0,0,1-.24121-1.26074A36.60765,36.60765,0,0,1,63.75781,5.668a.99988.99988,0,0,1,1.29688,0A36.589,36.589,0,0,1,73.29395,15.8125a1.00046,1.00046,0,0,1-.24121,1.26074C71.17676,18.6084,67.94434,19.52441,64.40625,19.52441Zm-6.69238-3.52051a13.715,13.715,0,0,0,6.69238,1.52051,13.70374,13.70374,0,0,0,6.69238-1.52148,34.58034,34.58034,0,0,0-6.69238-8.24512A34.53828,34.53828,0,0,0,57.71387,16.00391Z" style="fill:#6d6daa"/><path d="M64.40625,37.25684a5.7544,5.7544,0,1,1,4.07031-1.68359A5.73974,5.73974,0,0,1,64.40625,37.25684Zm0-9.50977A3.75537,3.75537,0,1,0,67.0625,28.8457,3.74482,3.74482,0,0,0,64.40625,27.74707Z" style="fill:#6d6daa"/><path d="M64.5,47.72615h0a3.5,3.5,0,0,0-3.5,3.5V66.6844a3.5,3.5,0,0,0,3.5,3.5h0a3.5,3.5,0,0,0,3.5-3.5V51.22614A3.5,3.5,0,0,0,64.5,47.72615Z" style="fill:#c9c1f5"/><path d="M64.49991,47.72621A3.49964,3.49964,0,0,0,61.00007,51.226L61,55.84336a3.5,3.5,0,1,1,7,0l-.00007-4.61717A3.4999,3.4999,0,0,0,64.49991,47.72621Z" style="fill:#fff;opacity:0.5"/><path d="M64.5,71.18457a4.50492,4.50492,0,0,1-4.5-4.5v-15.458a4.5,4.5,0,0,1,9,0v15.458A4.50492,4.50492,0,0,1,64.5,71.18457Zm0-22.458a2.50232,2.50232,0,0,0-2.5,2.5v15.458a2.5,2.5,0,0,0,5,0v-15.458A2.50232,2.50232,0,0,0,64.5,48.72656Z" style="fill:#6d6daa"/><path d="M11.59615,79.6859a4.85463,4.85463,0,0,0,3.23076,3.23079q2.42309.80768,0,1.61536a4.85463,4.85463,0,0,0-3.23076,3.23079q-.80768,2.423-1.61539,0A4.85457,4.85457,0,0,0,6.75,84.532q-2.42309-.80768,0-1.61536A4.85457,4.85457,0,0,0,9.98076,79.6859Q10.78849,77.26285,11.59615,79.6859Z" style="fill:#97c1ff"/><path d="M22.02054,16.6665A3.74519,3.74519,0,0,0,24.513,19.159q1.86934.6231,0,1.2462a3.74519,3.74519,0,0,0-2.49243,2.49245q-.6231,1.8693-1.24623,0a3.74515,3.74515,0,0,0-2.49243-2.49245q-1.86934-.6231,0-1.2462a3.74515,3.74515,0,0,0,2.49243-2.49245Q21.39745,14.7972,22.02054,16.6665Z" style="fill:#c9c1f5"/><path d="M118.3718,60.641a4.62346,4.62346,0,0,0,3.07691,3.07694q2.30771.76922,0,1.53844a4.62346,4.62346,0,0,0-3.07691,3.07694q-.76922,2.30766-1.53847,0a4.6234,4.6234,0,0,0-3.07691-3.07694q-2.30771-.76922,0-1.53844a4.6234,4.6234,0,0,0,3.07691-3.07694Q117.6026,58.33333,118.3718,60.641Z" style="fill:#96d7ff"/><path d="M96.78205,38.33973a3.69876,3.69876,0,0,0,2.46153,2.46155q1.84616.61538,0,1.23075a3.69876,3.69876,0,0,0-2.46153,2.46155q-.61538,1.84613-1.23078,0A3.69872,3.69872,0,0,0,93.08975,42.032q-1.84616-.61538,0-1.23075a3.69872,3.69872,0,0,0,2.46153-2.46155Q96.16669,36.4936,96.78205,38.33973Z" style="fill:#ff99b1"/><path d="M111.84616,115.34614A3.23642,3.23642,0,0,0,114,117.5q1.61539.53845,0,1.07691a3.23642,3.23642,0,0,0-2.15384,2.15386q-.53845,1.61536-1.07693,0a3.23638,3.23638,0,0,0-2.15384-2.15386q-1.61539-.53845,0-1.07691a3.23638,3.23638,0,0,0,2.15384-2.15386Q111.30772,113.73078,111.84616,115.34614Z" style="fill:#ff99b1"/><g style="opacity:0.30000000000000004"><circle cx="109" cy="20" r="6" style="fill:#c9c1f5"/><path d="M109,17.6a5.98,5.98,0,0,1,5.70681,4.239A5.926,5.926,0,0,0,115,20a6,6,0,0,0-12,0,5.926,5.926,0,0,0,.29319,1.839A5.98,5.98,0,0,1,109,17.6Z" style="fill:#fff;opacity:0.5"/><path d="M109,27a7,7,0,1,1,7-7A7.00849,7.00849,0,0,1,109,27Zm0-12a5,5,0,1,0,5,5A5.00589,5.00589,0,0,0,109,15Z" style="fill:#6d6daa"/><circle cx="28.5" cy="51.9" r="3.5" style="fill:#ff99b1"/><path d="M28.5,50.5a3.48832,3.48832,0,0,1,3.329,2.47277A3.45684,3.45684,0,0,0,32,51.9a3.5,3.5,0,0,0-7,0,3.45684,3.45684,0,0,0,.171,1.07277A3.48832,3.48832,0,0,1,28.5,50.5Z" style="fill:#fff;opacity:0.5"/><path d="M28.5,56.40039a4.5,4.5,0,1,1,4.5-4.5A4.50492,4.50492,0,0,1,28.5,56.40039Zm0-7a2.5,2.5,0,1,0,2.5,2.5A2.50232,2.50232,0,0,0,28.5,49.40039Z" style="fill:#6d6daa"/></g></svg>