<?xml version="1.0" encoding="UTF-8" standalone="no"?>
<!-- Created with Inkscape (http://www.inkscape.org/) -->

<svg
   xmlns:dc="http://purl.org/dc/elements/1.1/"
   xmlns:cc="http://creativecommons.org/ns#"
   xmlns:rdf="http://www.w3.org/1999/02/22-rdf-syntax-ns#"
   xmlns:svg="http://www.w3.org/2000/svg"
   xmlns="http://www.w3.org/2000/svg"
   xmlns:sodipodi="http://sodipodi.sourceforge.net/DTD/sodipodi-0.dtd"
   xmlns:inkscape="http://www.inkscape.org/namespaces/inkscape"
   width="650"
   height="320"
   viewBox="0 0 171.97917 84.666665"
   version="1.1"
   id="svg3719"
   inkscape:version="0.92.3 (2405546, 2018-03-11)"
   sodipodi:docname="repo-banner-text.svg">
  <defs
     id="defs3713">
    <clipPath
       id="clip-path">
      <path
         id="path4728"
         style="fill:#c9c1f5;opacity:0.30000000000000004"
         d="M13.20134,40.65928a27.78554,27.78554,0,0,0-.11667,31.81551,18.23589,18.23589,0,0,1,3.18959,11.3637,34.27871,34.27871,0,0,0,53.02029,30.54578,18.89625,18.89625,0,0,1,15.79932-2.34148c14.25888,4.21427,31.35334-4.10393,34.08781-24.48725a15.37645,15.37645,0,0,0-1.15038-7.3461,19.059,19.059,0,0,1,.17881-13.69473,26.38283,26.38283,0,0,0-18.02166-35.09255A33.80078,33.80078,0,0,1,82.52132,19.45367a26.85884,26.85884,0,0,0-43.86287,2.79707,18.22589,18.22589,0,0,1-10.585,7.75585A27.62966,27.62966,0,0,0,13.20134,40.65928Z" />
    </clipPath>
    <clipPath
       id="clip-path-6">
      <path
         inkscape:connector-curvature="0"
         id="path4728-3"
         style="opacity:0.3;fill:#c9c1f5"
         d="m 13.20134,40.65928 a 27.78554,27.78554 0 0 0 -0.11667,31.81551 18.23589,18.23589 0 0 1 3.18959,11.3637 34.27871,34.27871 0 0 0 53.02029,30.54578 18.89625,18.89625 0 0 1 15.79932,-2.34148 c 14.25888,4.21427 31.35334,-4.10393 34.08781,-24.48725 a 15.37645,15.37645 0 0 0 -1.15038,-7.3461 19.059,19.059 0 0 1 0.17881,-13.69473 26.38283,26.38283 0 0 0 -18.02166,-35.09255 33.80078,33.80078 0 0 1 -17.66713,-11.96849 26.85884,26.85884 0 0 0 -43.86287,2.79707 18.22589,18.22589 0 0 1 -10.585,7.75585 27.62966,27.62966 0 0 0 -14.87211,10.65269 z" />
    </clipPath>
  </defs>
  <sodipodi:namedview
     id="base"
     pagecolor="#ffffff"
     bordercolor="#666666"
     borderopacity="1.0"
     inkscape:pageopacity="0.0"
     inkscape:pageshadow="2"
     inkscape:zoom="1.979899"
     inkscape:cx="84.101171"
     inkscape:cy="126.53253"
     inkscape:document-units="mm"
     inkscape:current-layer="layer1"
     showgrid="false"
     units="px"
     inkscape:pagecheckerboard="false"
     inkscape:window-width="3440"
     inkscape:window-height="1377"
     inkscape:window-x="-8"
     inkscape:window-y="-8"
     inkscape:window-maximized="1" />
  <metadata
     id="metadata3716">
    <rdf:RDF>
      <cc:Work
         rdf:about="">
        <dc:format>image/svg+xml</dc:format>
        <dc:type
           rdf:resource="http://purl.org/dc/dcmitype/StillImage" />
        <dc:title />
      </cc:Work>
    </rdf:RDF>
  </metadata>
  <g
     inkscape:label="Title"
     inkscape:groupmode="layer"
     id="layer1"
     transform="translate(0,-212.33334)"
     style="display:inline">
    <text
       xml:space="preserve"
       style="font-style:normal;font-weight:normal;font-size:10.58333302px;line-height:1.25;font-family:sans-serif;letter-spacing:0px;word-spacing:0px;fill:#000000;fill-opacity:1;stroke:none;stroke-width:0.26458332"
       x="34.238506"
       y="228.13168"
       id="text3723"><tspan
         sodipodi:role="line"
         id="tspan3721"
         x="34.238506"
         y="228.13168"
         style="font-style:normal;font-variant:normal;font-weight:300;font-stretch:normal;font-size:14.8166666px;font-family:Montserrat;-inkscape-font-specification:'Montserrat Light';letter-spacing:-1.2382499px;fill:#0366d6;fill-opacity:1;stroke-width:0.26458332"
         dx="0 0 0 0 0 0 0 0 0 0"><tspan
   style="font-size:14.8166666px;letter-spacing:-1.19062495px;fill:#0366d6;fill-opacity:1"
   id="tspan3731">GOURMET</tspan>  <tspan
   style="font-style:normal;font-variant:normal;font-weight:normal;font-stretch:normal;font-size:14.8166666px;font-family:Montserrat;-inkscape-font-specification:Montserrat;letter-spacing:-0.5291667px;fill:#0366d6;fill-opacity:1"
   id="tspan3729">SSR</tspan></tspan></text>
    <text
       xml:space="preserve"
       style="font-style:normal;font-weight:normal;font-size:5.29166667px;line-height:1.25;font-family:sans-serif;letter-spacing:0px;word-spacing:0px;display:inline;fill:#000000;fill-opacity:1;stroke:none;stroke-width:0.26458332;-inkscape-font-specification:'sans-serif, Normal';font-stretch:normal;font-variant:normal;text-anchor:start;text-align:start;writing-mode:lr;font-variant-ligatures:normal;font-variant-caps:normal;font-variant-numeric:normal;font-feature-settings:normal;"
       x="21.213135"
       y="239.83005"
       id="text5621"><tspan
         sodipodi:role="line"
         id="tspan5619"
         x="21.213135"
         y="239.83005"
         style="font-style:normal;font-variant:normal;font-weight:normal;font-stretch:normal;font-size:5.29166667px;font-family:sans-serif;-inkscape-font-specification:'sans-serif, Normal';fill:#0366d6;fill-opacity:1;stroke-width:0.26458332;text-anchor:start;text-align:start;writing-mode:lr;font-variant-ligatures:normal;font-variant-caps:normal;font-variant-numeric:normal;font-feature-settings:normal;">A Server-Side Rendering Engine for Professionals</tspan></text>
  </g>
  <g
     inkscape:groupmode="layer"
     id="layer2"
     inkscape:label="Icons"
     style="display:inline">
    <g
       style="display:inline"
       id="g4904"
       transform="matrix(0.20118028,0,0,0.20118028,55.43358,41.230172)">
      <path
         id="path4735"
         style="opacity:0.3;fill:#c9c1f5"
         d="m 13.20134,40.65928 a 27.78554,27.78554 0 0 0 -0.11667,31.81551 18.23589,18.23589 0 0 1 3.18959,11.3637 34.27871,34.27871 0 0 0 53.02029,30.54578 18.89625,18.89625 0 0 1 15.79932,-2.34148 c 14.25888,4.21427 31.35334,-4.10393 34.08781,-24.48725 a 15.37645,15.37645 0 0 0 -1.15038,-7.3461 19.059,19.059 0 0 1 0.17881,-13.69473 26.38283,26.38283 0 0 0 -18.02166,-35.09255 33.80078,33.80078 0 0 1 -17.66713,-11.96849 26.85884,26.85884 0 0 0 -43.86287,2.79707 18.22589,18.22589 0 0 1 -10.585,7.75585 27.62966,27.62966 0 0 0 -14.87211,10.65269 z"
         inkscape:connector-curvature="0" />
      <g
         id="g4753"
         clip-path="url(#clip-path-6)">
        <path
           id="path4737"
           style="fill:#ff99b1"
           d="M 126,125.93842 A 63.77958,63.77958 0 0 0 2,123.781 V 127 h 124 z"
           inkscape:connector-curvature="0" />
        <path
           id="path4739"
           style="opacity:0.5;fill:#ffffff"
           d="M 63.74963,76 A 63.79869,63.79869 0 0 0 2,123.78094 V 127 H 7.65411 A 63.75777,63.75777 0 0 1 111.32159,97.31622 63.60339,63.60339 0 0 0 63.74963,76 Z"
           inkscape:connector-curvature="0" />
        <path
           id="path4741"
           style="opacity:0.15;fill:#750000"
           d="m 126,127 v -1.07684 a 63.75448,63.75448 0 0 0 -21.73486,-35.3996 63.46777,63.46777 0 0 1 11.11,35.9632 c 0,0.17212 -0.0112,0.34149 -0.0125,0.51324 z"
           inkscape:connector-curvature="0" />
        <g
           id="g4747"
           style="opacity:0.5">
          <path
             id="path4743"
             style="fill:#fedbc1"
             d="m 103.89038,90.55328 c -19.53229,-13.629 -51.19513,-7.548 -74.05164,15.30853 A 81.717,81.717 0 0 0 14.48944,127 h 21.32007 c 2.28192,-2.65277 4.71429,-5.2843 7.29871,-7.86871 C 64.94305,97.29645 90.084,85.9295 103.89038,90.55328 Z"
             inkscape:connector-curvature="0" />
          <path
             id="path4745"
             style="fill:#fedbc1"
             d="M 63.38086,127 H 88.5827 C 103.04706,110.43787 111.52026,97.35516 108.8437,94.67865 105.4892,91.32416 85.794,105.47656 63.38086,127 Z"
             inkscape:connector-curvature="0" />
        </g>
        <path
           id="path4749"
           style="opacity:0.5;fill:#fedbc1"
           d="m 108.84973,127 h 11.475 c 0.55731,-10.15826 -1.74115,-19.71667 -7.10016,-27.39679 2.31309,6.90662 0.62412,16.6499 -4.37484,27.39679 z"
           inkscape:connector-curvature="0" />
        <path
           id="path4751"
           style="fill:#6d6daa"
           d="M 126,128 H 2 a 0.99942,0.99942 0 0 1 -1,-1 v -3.21875 a 0.98649,0.98649 0 0 1 0.03223,-0.25 64.77972,64.77972 0 0 1 125.94434,2.19141 1.00071,1.00071 0 0 1 0.0234,0.21582 V 127 A 0.99942,0.99942 0 0 1 126,128 Z M 3,126 H 124.98926 A 62.77965,62.77965 0 0 0 3,123.90918 Z"
           inkscape:connector-curvature="0" />
      </g>
      <path
         id="path4755"
         style="fill:#ff9797"
         d="m 54.931,72.93141 v 0 c -0.80364,6.89872 0.91346,13.92836 4.42777,18.12817 l 5.04759,6.03193 5.04764,-6.03193 c 3.51432,-4.19981 5.23141,-11.22945 4.42777,-18.12817 v 0 L 72,60 H 57 Z"
         inkscape:connector-curvature="0" />
      <path
         id="path4757"
         style="fill:#fff27d"
         d="m 59.26746,70.291 a 28.66905,28.66905 0 0 0 -0.71179,6.49456 c 0,7.49936 5.8507,13.57882 5.8507,13.57882 0,0 5.8507,-6.07946 5.8507,-13.57882 A 28.66905,28.66905 0 0 0 69.54528,70.291 L 68,62.5 h -7 z"
         inkscape:connector-curvature="0" />
      <path
         id="path4759"
         style="fill:#ffffff"
         d="m 61.72942,70.291 a 14.93419,14.93419 0 0 0 -0.37078,3.38312 c 0,3.90654 3.04773,7.07343 3.04773,7.07343 0,0 3.04773,-3.16689 3.04773,-7.07343 A 14.93419,14.93419 0 0 0 67.0833,70.291 L 66,64.78731 h -3 z"
         inkscape:connector-curvature="0" />
      <path
         id="path4761"
         style="fill:#c9c1f5"
         d="M 52.41372,59.3437 51.8436,48.99642 c -4.84485,2.30622 -8.057,6.35063 -8.36581,10.91689 l -0.56861,8.408 c -0.09754,1.44262 2.42571,1.9723 3.24649,0.67641 a 26.46857,26.46857 0 0 1 7.16217,-7.98237 2.31492,2.31492 0 0 1 -0.90412,-1.67165 z"
         inkscape:connector-curvature="0" />
      <path
         id="path4763"
         style="opacity:0.5;fill:#ffffff"
         d="m 45.52091,69.52642 0.47957,-7.09046 c 0.25616,-3.78753 2.53,-7.19953 6.056,-9.57489 L 51.84359,48.9964 c -4.8449,2.30623 -8.05694,6.35063 -8.3658,10.9169 l -0.56867,8.408 c -0.07891,1.16786 1.54934,1.718 2.61179,1.20512 z"
         inkscape:connector-curvature="0" />
      <path
         id="path4765"
         style="fill:#c9c1f5"
         d="m 85.33493,59.91331 c -0.30877,-4.56635 -3.521,-8.61051 -8.366,-10.91689 l -0.57,10.34728 a 2.31488,2.31488 0 0 1 -0.90412,1.67151 26.46993,26.46993 0 0 1 7.16225,7.98262 c 0.82079,1.29572 3.344,0.76622 3.24649,-0.67641 z"
         inkscape:connector-curvature="0" />
      <path
         id="path4767"
         style="opacity:0.5;fill:#ffffff"
         d="m 76.9689,48.9964 -0.2239,4.06622 c 3.62981,2.37916 5.97269,5.846 6.23315,9.698 l 0.46263,6.83959 c 1.05932,0.39263 2.53806,-0.166 2.46287,-1.27883 L 85.33493,59.91329 C 85.02615,55.34693 81.814,51.30278 76.9689,48.9964 Z"
         inkscape:connector-curvature="0" />
      <path
         id="path4769"
         style="fill:#9eb2cc"
         d="m 62.01745,54.65128 -1.5e-4,-5e-5 C 56.40649,54.20708 51.914,52.394 51.914,50.2219 l -0.0029,-0.0016 0.50261,9.12344 c -5e-5,2.1579 4.26494,3.96039 9.60368,4.41917 z"
         inkscape:connector-curvature="0" />
      <path
         id="path4771"
         style="fill:#9eb2cc"
         d="m 66.79526,63.76287 c 5.33858,-0.45894 9.60363,-2.26127 9.60373,-4.41922 l 0.50251,-9.12344 -0.0029,0.0017 c -5e-5,2.17207 -4.49241,3.98513 -10.10326,4.42933 z"
         inkscape:connector-curvature="0" />
      <path
         id="path4773"
         style="fill:#9eb2cc"
         d="m 66.79526,63.76287 c 5.33858,-0.45894 9.60363,-2.26127 9.60373,-4.41922 l 0.50251,-9.12344 -0.0029,0.0017 c -5e-5,2.17207 -4.49241,3.98513 -10.10326,4.42933 z"
         inkscape:connector-curvature="0" />
      <path
         id="path4775"
         style="fill:#eef6ff"
         d="M 64.40641,6.4297 A 38.19508,38.19508 0 0 0 51.72,30.443 50.04106,50.04106 0 0 0 51.34323,39.91185 l 0.5679,10.3084 0.0029,0.0016 c -5e-5,2.17207 4.49246,3.98518 10.10326,4.42933 l 1.5e-4,5e-5 V 50.624 a 2.38891,2.38891 0 0 1 4.77782,0 l 5e-5,4.02721 C 72.40617,54.207 76.89853,52.394 76.89858,50.2219 l 0.0029,-0.0017 0.5679,-10.3083 A 50.03573,50.03573 0 0 0 77.09269,30.44311 38.19544,38.19544 0 0 0 64.40641,6.4297 Z"
         inkscape:connector-curvature="0" />
      <path
         id="path4777"
         style="fill:#c9c1f5"
         d="m 64.40636,18.52429 c 3.408,8e-5 6.38636,-0.89453 8.014,-2.225 a 35.72382,35.72382 0 0 0 -8.014,-9.86964 35.72477,35.72477 0 0 0 -8.01407,9.86974 c 1.62762,1.33045 4.60596,2.2249 8.01407,2.2249 z"
         inkscape:connector-curvature="0" />
      <path
         id="path4779"
         style="opacity:0.5;fill:#ffffff"
         d="m 64.29735,7.50776 q 0.05343,-0.55368 0.109,-1.07805 L 64.397,6.438 q -0.35883,0.51988 -0.703,1.06974 c -0.10788,0.172 -0.21125,0.35259 -0.317,0.52884 -0.11948,0.19924 -0.24045,0.39535 -0.35706,0.59982 -0.142,0.24866 -0.27884,0.5061 -0.41665,0.76226 -0.0736,0.13714 -0.149,0.27089 -0.22136,0.41013 -0.15962,0.3063 -0.3139,0.62091 -0.46751,0.93722 -0.0447,0.09233 -0.09084,0.1824 -0.135,0.27561 -0.16932,0.35572 -0.33324,0.7194 -0.49491,1.08709 -0.02428,0.05538 -0.04922,0.10958 -0.07344,0.16521 q -0.2589,0.59594 -0.50348,1.21247 l -0.03264,0.08119 q -0.25682,0.6476 -0.49794,1.31625 l -0.0071,0.0195 q -0.24682,0.68363 -0.47716,1.38764 l -3.1e-4,10e-4 c -0.15541,0.47464 -0.28377,0.9789 -0.42778,1.46606 a 16.39065,16.39065 0 0 0 4.31806,0.73927 c 0.032,-0.74224 0.06308,-1.49152 0.099,-2.20481 V 16.291 q 0.03557,-0.70411 0.07344,-1.38764 l 0.0011,-0.01955 q 0.03726,-0.66823 0.07663,-1.31619 l 0.005,-0.08119 q 0.03772,-0.61558 0.07745,-1.21252 l 0.01129,-0.16516 c 0.02484,-0.36768 0.05009,-0.73136 0.07616,-1.08714 0.0067,-0.09315 0.01386,-0.18323 0.02079,-0.27556 0.02356,-0.31631 0.04737,-0.63092 0.0719,-0.93722 0.01114,-0.13924 0.02274,-0.273 0.034,-0.41013 0.0212,-0.25616 0.04224,-0.5136 0.0641,-0.76221 0.01791,-0.20452 0.03654,-0.40063 0.05492,-0.59987 0.01642,-0.17627 0.03227,-0.35687 0.04885,-0.52886 z"
         inkscape:connector-curvature="0" />
      <path
         id="path4781"
         style="opacity:0.75;fill:#ffffff"
         d="m 64.40631,6.42971 7.2e-4,-0.007 L 64.397,6.438 Z"
         inkscape:connector-curvature="0" />
      <path
         id="path4783"
         style="opacity:0.75;fill:#ffffff"
         d="m 59.26471,17.75807 a 62.365,62.365 0 0 0 -2.32116,12.67807 84.83636,84.83636 0 0 0 -0.22167,9.46885 l 0.33417,10.3084 0.1182,3.64731 a 27.9641,27.9641 0 0 0 4.84305,0.79054 l 1.5e-4,5e-5 1.25871,-4.4379 L 63.22479,39.905 c -0.01576,-3.16251 -0.0044,-6.33688 0.03408,-9.4689 0.05189,-4.228 0.16465,-8.24442 0.3239,-11.93875 a 16.39065,16.39065 0 0 1 -4.31806,-0.73928 z"
         inkscape:connector-curvature="0" />
      <g
         id="g4787"
         style="opacity:0.5">
        <path
           id="path4785"
           style="fill:#ffffff"
           d="m 62.01745,54.65129 -1.5e-4,-5e-5 A 27.9641,27.9641 0 0 1 57.17425,53.8607 l 0.17743,5.47608 c 5e-5,1.92592 2.00311,3.5616 4.66578,4.21875 z"
           inkscape:connector-curvature="0" />
      </g>
      <path
         id="path4789"
         style="opacity:0.2;fill:#2c4b75"
         d="M 77.09343,30.43625 A 40.00543,40.00543 0 0 0 71.60851,14.90191 l -0.01,-0.01619 q -0.41133,-0.66957 -0.848,-1.31883 c -0.01793,-0.02664 -0.03636,-0.05277 -0.05429,-0.07933 q -0.41764,-0.61644 -0.857,-1.21394 c -0.04065,-0.05516 -0.08289,-0.10909 -0.1239,-0.16411 -0.27494,-0.36792 -0.554,-0.73192 -0.842,-1.088 -0.075,-0.093 -0.153,-0.18284 -0.22885,-0.275 C 68.38317,10.42998 68.12057,10.11504 67.84918,9.8086 67.72746,9.67084 67.60066,9.5386 67.4769,9.40286 67.24115,9.14486 67.00671,8.88564 66.7637,8.63523 66.57049,8.43585 66.36979,8.24466 66.17193,8.05029 65.98728,7.86912 65.80655,7.68353 65.61805,7.50672 q -0.59293,-0.55667 -1.211,-1.08395 l -7e-5,7e-5 q 0.364,0.52641 0.71247,1.08388 c 0.11091,0.17681 0.21724,0.3624 0.3259,0.54357 0.11635,0.19438 0.23444,0.38556 0.34811,0.58494 0.143,0.25041 0.28089,0.50967 0.4196,0.76763 0.0728,0.13573 0.14742,0.268 0.219,0.40574 0.15968,0.30644 0.31414,0.62138 0.46787,0.93791 0.04464,0.09218 0.09058,0.182 0.13471,0.275 0.16934,0.35609 0.33352,0.72009 0.4953,1.088 0.0241,0.055 0.04892,0.10895 0.07287,0.16411 q 0.25923,0.59674 0.50416,1.21394 l 0.03194,0.07933 q 0.25727,0.649 0.49886,1.31883 l 0.006,0.01619 a 60.2877,60.2877 0 0 1 3.22688,15.53434 84.8078,84.8078 0 0 1 0.22159,9.46876 l -0.3341,10.30832 -0.29563,9.12341 c -7e-5,2.158 -2.50925,3.96032 -5.65,4.41926 H 66.796 c 5.33852,-0.45894 9.60362,-2.26131 9.60369,-4.41926 L 76.90218,50.21333 77.47013,39.905 a 50.03253,50.03253 0 0 0 -0.3767,-9.46875 z"
         inkscape:connector-curvature="0" />
      <circle
         id="circle4791"
         transform="rotate(-45,64.406275,31.502457)"
         style="fill:#96d7ff"
         r="4.7567701"
         cy="31.502451"
         cx="64.406281" />
      <path
         id="path4793"
         style="opacity:0.2;fill:#2c4b75"
         d="m 63.56537,30.6616 a 4.75267,4.75267 0 0 1 5.21633,-1.0119 4.75679,4.75679 0 1 0 -6.22823,6.22823 4.7529,4.7529 0 0 1 1.0119,-5.21633 z"
         inkscape:connector-curvature="0" />
      <path
         id="path4795"
         style="opacity:0.5;fill:#ffffff"
         d="m 61.04271,28.13894 a 4.73757,4.73757 0 0 0 3.79872,8.07849 v -9.4301 a 4.72585,4.72585 0 0 0 -3.79872,1.35161 z"
         inkscape:connector-curvature="0" />
      <path
         id="path4797"
         style="fill:#6d6daa"
         d="m 64.40625,98.0918 a 0.99735,0.99735 0 0 1 -0.7666,-0.3584 L 58.5918,91.70117 C 54.87989,87.26465 53.09668,80.02832 53.9375,72.8164 a 0.98916,0.98916 0 0 1 1.10938,-0.87793 0.99964,0.99964 0 0 1 0.877,1.10938 c -0.7666,6.584 0.88184,13.40234 4.20117,17.37012 l 4.28125,5.11523 4.2812,-5.1152 c 3.31934,-3.9668 4.96875,-10.78516 4.20117,-17.37012 a 0.99964,0.99964 0 0 1 0.877,-1.10937 0.987,0.987 0 0 1 1.10938,0.87793 c 0.84082,7.21289 -0.94238,14.4502 -4.6543,18.88477 l -5.0479,6.03219 a 0.99735,0.99735 0 0 1 -0.7666,0.3584 z"
         inkscape:connector-curvature="0" />
      <path
         id="path4799"
         style="fill:#6d6daa"
         d="m 44.667,70.73535 a 3.33433,3.33433 0 0 1 -1.02441,-0.16113 2.30572,2.30572 0 0 1 -1.73145,-2.32031 l 0.56836,-8.4082 c 0.3291,-4.85254 3.66895,-9.24609 8.93457,-11.75293 a 0.99917,0.99917 0 0 1 1.42773,0.84863 l 0.57031,10.34766 c 0.001,0.01758 0.002,0.03613 0.002,0.05469 a 1.47836,1.47836 0 0 0 0.57324,0.92871 1.00106,1.00106 0 0 1 -0.11523,1.5752 A 25.16312,25.16312 0 0 0 47,69.5332 2.67765,2.67765 0 0 1 44.667,70.73535 Z m 6.26465,-20.125 c -3.82422,2.24512 -6.20508,5.666 -6.45605,9.37012 l -0.56836,8.4082 c -0.0088,0.12988 0.22949,0.24316 0.35645,0.28516 a 0.962,0.962 0 0 0 1.04688,-0.21094 29.01478,29.01478 0 0 1 6.5459,-7.62988 2.79866,2.79866 0 0 1 -0.44238,-1.458 z"
         inkscape:connector-curvature="0" />
      <path
         id="path4801"
         style="fill:#6d6daa"
         d="m 84.14551,70.73535 a 2.67765,2.67765 0 0 1 -2.333,-1.20215 25.16473,25.16473 0 0 0 -6.87207,-7.68555 1.00106,1.00106 0 0 1 -0.11523,-1.5752 1.48318,1.48318 0 0 0 0.57422,-0.93066 L 75.97072,48.9414 a 0.99917,0.99917 0 0 1 1.42773,-0.84863 c 5.2666,2.50684 8.60645,6.90039 8.93457,11.75293 l 0.56836,8.4082 a 2.30572,2.30572 0 0 1 -1.73145,2.32031 3.33433,3.33433 0 0 1 -1.02442,0.16114 z M 76.958,60.834 a 29.00771,29.00771 0 0 1 6.544,7.62889 0.96372,0.96372 0 0 0 1.04688,0.21094 c 0.127,-0.042 0.36523,-0.15527 0.35645,-0.28516 l -0.56836,-8.4082 v 0 c -0.25,-3.7041 -2.63184,-7.125 -6.45508,-9.37012 l -0.48437,8.78809 A 2.68905,2.68905 0 0 1 76.958,60.834 Z"
         inkscape:connector-curvature="0" />
      <path
         id="path4803"
         style="fill:#6d6daa"
         d="m 62.01855,64.7627 c -0.02832,0 -0.05762,-10e-4 -0.08691,-0.0039 -5.23535,-0.4502 -10.51758,-2.29883 -10.51758,-5.415 l -0.501,-9.06836 a 1.00118,1.00118 0 1 1 2.001,-0.05371 c 0,1.10547 3.26953,2.96484 9.18262,3.43262 a 1.0002027,1.0002027 0 1 1 -0.1582,1.99414 c -3.3623,-0.2666 -6.74219,-1.0625 -8.85645,-2.36328 l 0.33008,6.00391 c 0.002,1.14844 3.09668,2.99609 8.69141,3.47754 a 0.9999,0.9999 0 0 1 -0.085,1.99609 z"
         inkscape:connector-curvature="0" />
      <path
         id="path4805"
         style="fill:#6d6daa"
         d="m 66.79395,64.7627 a 0.9999,0.9999 0 0 1 -0.085,-1.99609 c 5.59473,-0.48145 8.68945,-2.3291 8.69043,-3.42285 l 0.332,-6.05859 c -2.11426,1.30078 -5.49512,2.09668 -8.85742,2.36328 a 1.0002027,1.0002027 0 1 1 -0.1582,-1.99414 c 5.91309,-0.46777 9.18262,-2.32715 9.18262,-3.43262 a 1.00117,1.00117 0 1 1 2.001,0.05273 l -0.502,9.124 c 0.001,3.06152 -5.28223,4.91016 -10.5166,5.36035 -0.02922,0.0029 -0.05851,0.0039 -0.08683,0.0039 z"
         inkscape:connector-curvature="0" />
      <path
         id="path4807"
         style="fill:#6d6daa"
         d="M 66.79395,55.65137 A 1.0001,1.0001 0 0 1 66.71583,53.6543 c 5.91309,-0.46777 9.18262,-2.32715 9.18262,-3.43262 a 0.95661,0.95661 0 0 1 0.0088,-0.12988 L 76.47169,39.85743 A 49.09084,49.09084 0 0 0 76.10157,30.57813 37.12091,37.12091 0 0 0 64.40625,7.75781 37.12091,37.12091 0 0 0 52.71094,30.57813 a 49.29312,49.29312 0 0 0 -0.37012,9.2793 l 0.56445,10.23438 a 0.95661,0.95661 0 0 1 0.0088,0.12988 c 0,1.10547 3.26953,2.96484 9.18262,3.43262 a 1.0002027,1.0002027 0 1 1 -0.1582,1.99414 c -5.43164,-0.43066 -10.91211,-2.24414 -11.02246,-5.332 a 0.28967,0.28967 0 0 1 -0.0029,-0.041 L 50.34473,39.9668 A 51.24748,51.24748 0 0 1 50.72852,30.30957 38.98076,38.98076 0 0 1 63.75781,5.668 a 0.99988,0.99988 0 0 1 1.29688,0 38.98081,38.98081 0 0 1 13.02931,24.64059 51.14375,51.14375 0 0 1 0.38379,9.6582 l -0.56836,10.30762 a 0.28967,0.28967 0 0 1 -0.0029,0.041 c -0.1084,3.08887 -5.58984,4.90234 -11.02246,5.333 -0.02736,0.002 -0.05373,0.003 -0.08009,0.003 z"
         inkscape:connector-curvature="0" />
      <path
         id="path4809"
         style="fill:#6d6daa"
         d="m 64.40625,19.52441 c -3.53711,0 -6.76953,-0.916 -8.64648,-2.4502 A 1.00046,1.00046 0 0 1 55.51856,15.81347 36.60765,36.60765 0 0 1 63.75781,5.668 a 0.99988,0.99988 0 0 1 1.29688,0 36.589,36.589 0 0 1 8.23926,10.1445 1.00046,1.00046 0 0 1 -0.24121,1.26074 c -1.87598,1.53516 -5.1084,2.45117 -8.64649,2.45117 z M 57.71387,16.0039 a 13.715,13.715 0 0 0 6.69238,1.52051 13.70374,13.70374 0 0 0 6.69238,-1.52148 34.58034,34.58034 0 0 0 -6.69238,-8.24512 34.53828,34.53828 0 0 0 -6.69238,8.2461 z"
         inkscape:connector-curvature="0" />
      <path
         id="path4811"
         style="fill:#6d6daa"
         d="m 64.40625,37.25684 a 5.7544,5.7544 0 1 1 4.07031,-1.68359 5.73974,5.73974 0 0 1 -4.07031,1.68359 z m 0,-9.50977 a 3.75537,3.75537 0 1 0 2.65625,1.09863 3.74482,3.74482 0 0 0 -2.65625,-1.09863 z"
         inkscape:connector-curvature="0" />
      <path
         id="path4813"
         style="fill:#c9c1f5"
         d="m 64.5,47.72615 v 0 a 3.5,3.5 0 0 0 -3.5,3.5 V 66.6844 a 3.5,3.5 0 0 0 3.5,3.5 v 0 a 3.5,3.5 0 0 0 3.5,-3.5 V 51.22614 a 3.5,3.5 0 0 0 -3.5,-3.49999 z"
         inkscape:connector-curvature="0" />
      <path
         id="path4815"
         style="opacity:0.5;fill:#ffffff"
         d="M 64.49991,47.72621 A 3.49964,3.49964 0 0 0 61.00007,51.226 L 61,55.84336 a 3.5,3.5 0 1 1 7,0 l -7e-5,-4.61717 a 3.4999,3.4999 0 0 0 -3.50002,-3.49998 z"
         inkscape:connector-curvature="0" />
      <path
         id="path4817"
         style="fill:#6d6daa"
         d="m 64.5,71.18457 a 4.50492,4.50492 0 0 1 -4.5,-4.5 v -15.458 a 4.5,4.5 0 0 1 9,0 v 15.458 a 4.50492,4.50492 0 0 1 -4.5,4.5 z m 0,-22.458 a 2.50232,2.50232 0 0 0 -2.5,2.5 v 15.458 a 2.5,2.5 0 0 0 5,0 v -15.458 a 2.50232,2.50232 0 0 0 -2.5,-2.50001 z"
         inkscape:connector-curvature="0" />
      <path
         id="path4819"
         style="fill:#97c1ff"
         d="m 11.59615,79.6859 a 4.85463,4.85463 0 0 0 3.23076,3.23079 q 2.42309,0.80768 0,1.61536 a 4.85463,4.85463 0 0 0 -3.23076,3.23079 q -0.80768,2.423 -1.61539,0 A 4.85457,4.85457 0 0 0 6.75,84.532 q -2.42309,-0.80768 0,-1.61536 A 4.85457,4.85457 0 0 0 9.98076,79.6859 q 0.80773,-2.42305 1.61539,0 z"
         inkscape:connector-curvature="0" />
      <path
         id="path4821"
         style="fill:#c9c1f5"
         d="M 22.02054,16.6665 A 3.74519,3.74519 0 0 0 24.513,19.159 q 1.86934,0.6231 0,1.2462 a 3.74519,3.74519 0 0 0 -2.49243,2.49245 q -0.6231,1.8693 -1.24623,0 A 3.74515,3.74515 0 0 0 18.28191,20.4052 q -1.86934,-0.6231 0,-1.2462 a 3.74515,3.74515 0 0 0 2.49243,-2.49245 q 0.62311,-1.86935 1.2462,-5e-5 z"
         inkscape:connector-curvature="0" />
      <path
         id="path4823"
         style="fill:#96d7ff"
         d="m 118.3718,60.641 a 4.62346,4.62346 0 0 0 3.07691,3.07694 q 2.30771,0.76922 0,1.53844 a 4.62346,4.62346 0 0 0 -3.07691,3.07694 q -0.76922,2.30766 -1.53847,0 a 4.6234,4.6234 0 0 0 -3.07691,-3.07694 q -2.30771,-0.76922 0,-1.53844 a 4.6234,4.6234 0 0 0 3.07691,-3.07694 q 0.76927,-2.30767 1.53847,0 z"
         inkscape:connector-curvature="0" />
      <path
         id="path4825"
         style="fill:#ff99b1"
         d="m 96.78205,38.33973 a 3.69876,3.69876 0 0 0 2.46153,2.46155 q 1.84616,0.61538 0,1.23075 a 3.69876,3.69876 0 0 0 -2.46153,2.46155 q -0.61538,1.84613 -1.23078,0 A 3.69872,3.69872 0 0 0 93.08975,42.032 q -1.84616,-0.61538 0,-1.23075 a 3.69872,3.69872 0 0 0 2.46153,-2.46155 q 0.61541,-1.8461 1.23077,3e-5 z"
         inkscape:connector-curvature="0" />
      <path
         id="path4827"
         style="fill:#ff99b1"
         d="M 111.84616,115.34614 A 3.23642,3.23642 0 0 0 114,117.5 q 1.61539,0.53845 0,1.07691 a 3.23642,3.23642 0 0 0 -2.15384,2.15386 q -0.53845,1.61536 -1.07693,0 a 3.23638,3.23638 0 0 0 -2.15384,-2.15386 q -1.61539,-0.53845 0,-1.07691 a 3.23638,3.23638 0 0 0 2.15384,-2.15386 q 0.53849,-1.61536 1.07693,0 z"
         inkscape:connector-curvature="0" />
      <g
         id="g4841"
         style="opacity:0.3">
        <circle
           id="circle4829"
           style="fill:#c9c1f5"
           r="6"
           cy="20"
           cx="109" />
        <path
           id="path4831"
           style="opacity:0.5;fill:#ffffff"
           d="m 109,17.6 a 5.98,5.98 0 0 1 5.70681,4.239 A 5.926,5.926 0 0 0 115,20 6,6 0 0 0 103,20 5.926,5.926 0 0 0 103.29319,21.839 5.98,5.98 0 0 1 109,17.6 Z"
           inkscape:connector-curvature="0" />
        <path
           id="path4833"
           style="fill:#6d6daa"
           d="m 109,27 a 7,7 0 1 1 7,-7 7.00849,7.00849 0 0 1 -7,7 z m 0,-12 a 5,5 0 1 0 5,5 5.00589,5.00589 0 0 0 -5,-5 z"
           inkscape:connector-curvature="0" />
        <circle
           id="circle4835"
           style="fill:#ff99b1"
           r="3.5"
           cy="51.900002"
           cx="28.5" />
        <path
           id="path4837"
           style="opacity:0.5;fill:#ffffff"
           d="M 28.5,50.5 A 3.48832,3.48832 0 0 1 31.829,52.97277 3.45684,3.45684 0 0 0 32,51.9 a 3.5,3.5 0 0 0 -7,0 3.45684,3.45684 0 0 0 0.171,1.07277 A 3.48832,3.48832 0 0 1 28.5,50.5 Z"
           inkscape:connector-curvature="0" />
        <path
           id="path4839"
           style="fill:#6d6daa"
           d="m 28.5,56.40039 a 4.5,4.5 0 1 1 4.5,-4.5 4.50492,4.50492 0 0 1 -4.5,4.5 z m 0,-7 a 2.5,2.5 0 1 0 2.5,2.5 2.50232,2.50232 0 0 0 -2.5,-2.5 z"
           inkscape:connector-curvature="0" />
      </g>
    </g>
    <g
       style="display:inline"
       id="g5090"
       transform="matrix(0.41440244,0,0,0.41440244,7.9182461,40.54468)">
      <circle
         id="circle4983"
         r="24.5"
         cy="32"
         cx="32"
         class="st0"
         style="fill:#e9eaeb" />
      <polyline
         id="polyline4985"
         points="57,21 53.1,21 49,27 41,27 "
         class="st1"
         style="fill:none;stroke:#bcc0c4;stroke-width:2;stroke-miterlimit:10" />
      <line
         id="line4987"
         y2="32"
         y1="32"
         x2="41"
         x1="57"
         class="st1"
         style="fill:none;stroke:#bcc0c4;stroke-width:2;stroke-miterlimit:10" />
      <circle
         id="circle4989"
         r="3"
         cy="21"
         cx="60"
         class="st1"
         style="fill:none;stroke:#bcc0c4;stroke-width:2;stroke-miterlimit:10" />
      <polyline
         id="polyline4991"
         points="57,43 53.1,43 49.1,37 41,37 "
         class="st1"
         style="fill:none;stroke:#bcc0c4;stroke-width:2;stroke-miterlimit:10" />
      <circle
         id="circle4993"
         r="3"
         cy="43"
         cx="60"
         class="st1"
         style="fill:none;stroke:#bcc0c4;stroke-width:2;stroke-miterlimit:10" />
      <circle
         id="circle4995"
         r="3"
         cy="32"
         cx="60"
         class="st1"
         style="fill:none;stroke:#bcc0c4;stroke-width:2;stroke-miterlimit:10" />
      <line
         id="line4997"
         y2="37"
         y1="53"
         x2="32"
         x1="32"
         class="st1"
         style="fill:none;stroke:#bcc0c4;stroke-width:2;stroke-miterlimit:10" />
      <line
         id="line4999"
         y2="37"
         y1="53"
         x2="41"
         x1="41"
         class="st1"
         style="fill:none;stroke:#bcc0c4;stroke-width:2;stroke-miterlimit:10" />
      <line
         id="line5001"
         y2="37"
         y1="53"
         x2="23"
         x1="23"
         class="st1"
         style="fill:none;stroke:#bcc0c4;stroke-width:2;stroke-miterlimit:10" />
      <line
         id="line5003"
         y2="23"
         y1="9"
         x2="32"
         x1="32"
         class="st1"
         style="fill:none;stroke:#bcc0c4;stroke-width:2;stroke-miterlimit:10" />
      <circle
         id="circle5005"
         r="3"
         cy="7"
         cx="32"
         class="st1"
         style="fill:none;stroke:#bcc0c4;stroke-width:2;stroke-miterlimit:10" />
      <line
         id="line5007"
         y2="23"
         y1="9"
         x2="41"
         x1="41"
         class="st1"
         style="fill:none;stroke:#bcc0c4;stroke-width:2;stroke-miterlimit:10" />
      <circle
         id="circle5009"
         r="3"
         cy="7"
         cx="41"
         class="st1"
         style="fill:none;stroke:#bcc0c4;stroke-width:2;stroke-miterlimit:10" />
      <line
         id="line5011"
         y2="23"
         y1="9"
         x2="23"
         x1="23"
         class="st1"
         style="fill:none;stroke:#bcc0c4;stroke-width:2;stroke-miterlimit:10" />
      <circle
         id="circle5013"
         r="3"
         cy="7"
         cx="23"
         class="st1"
         style="fill:none;stroke:#bcc0c4;stroke-width:2;stroke-miterlimit:10" />
      <polyline
         id="polyline5015"
         points="7,21 10.9,21 15,27 23,27 "
         class="st1"
         style="fill:none;stroke:#bcc0c4;stroke-width:2;stroke-miterlimit:10" />
      <line
         id="line5017"
         y2="32"
         y1="32"
         x2="23"
         x1="7"
         class="st1"
         style="fill:none;stroke:#bcc0c4;stroke-width:2;stroke-miterlimit:10" />
      <circle
         id="circle5019"
         r="3"
         cy="21"
         cx="4"
         class="st1"
         style="fill:none;stroke:#bcc0c4;stroke-width:2;stroke-miterlimit:10" />
      <polyline
         id="polyline5021"
         points="7,43 10.9,43 14.9,37 23,37 "
         class="st1"
         style="fill:none;stroke:#bcc0c4;stroke-width:2;stroke-miterlimit:10" />
      <circle
         id="circle5023"
         r="3"
         cy="43"
         cx="4"
         class="st1"
         style="fill:none;stroke:#bcc0c4;stroke-width:2;stroke-miterlimit:10" />
      <circle
         id="circle5025"
         r="3"
         cy="32"
         cx="4"
         class="st1"
         style="fill:none;stroke:#bcc0c4;stroke-width:2;stroke-miterlimit:10" />
      <path
         id="path5027"
         d="m 45,41 c 0,1.7 -1.3,3 -3,3 H 22 c -1.7,0 -3,-1.3 -3,-3 V 23 c 0,-1.7 1.3,-3 3,-3 h 20 c 1.7,0 3,1.3 3,3 z"
         class="st2"
         inkscape:connector-curvature="0"
         style="fill:#a3d4ff;stroke:#2a5082;stroke-width:2;stroke-miterlimit:10" />
      <rect
         id="rect5029"
         y="27"
         x="27"
         width="10"
         height="10"
         class="st3"
         style="fill:#ffffff;stroke:#2a5082;stroke-width:2;stroke-miterlimit:10" />
      <line
         id="line5031"
         y2="29"
         y1="27"
         x2="23"
         x1="23"
         class="st4"
         style="fill:none;stroke:#2a5082;stroke-width:2;stroke-miterlimit:10" />
      <line
         id="line5033"
         y2="33"
         y1="31"
         x2="23"
         x1="23"
         class="st4"
         style="fill:none;stroke:#2a5082;stroke-width:2;stroke-miterlimit:10" />
      <line
         id="line5035"
         y2="37"
         y1="35"
         x2="23"
         x1="23"
         class="st4"
         style="fill:none;stroke:#2a5082;stroke-width:2;stroke-miterlimit:10" />
      <line
         id="line5037"
         y2="29"
         y1="27"
         x2="41"
         x1="41"
         class="st4"
         style="fill:none;stroke:#2a5082;stroke-width:2;stroke-miterlimit:10" />
      <line
         id="line5039"
         y2="33"
         y1="31"
         x2="41"
         x1="41"
         class="st4"
         style="fill:none;stroke:#2a5082;stroke-width:2;stroke-miterlimit:10" />
      <line
         id="line5041"
         y2="37"
         y1="35"
         x2="41"
         x1="41"
         class="st4"
         style="fill:none;stroke:#2a5082;stroke-width:2;stroke-miterlimit:10" />
      <circle
         id="circle5043"
         r="3"
         cy="56"
         cx="32"
         class="st1"
         style="fill:none;stroke:#bcc0c4;stroke-width:2;stroke-miterlimit:10" />
      <circle
         id="circle5045"
         r="3"
         cy="56"
         cx="41"
         class="st1"
         style="fill:none;stroke:#bcc0c4;stroke-width:2;stroke-miterlimit:10" />
      <circle
         id="circle5047"
         r="3"
         cy="56"
         cx="23"
         class="st1"
         style="fill:none;stroke:#bcc0c4;stroke-width:2;stroke-miterlimit:10" />
    </g>
    <g
       style="display:inline"
       id="Flat"
       transform="matrix(0.37117654,0,0,0.37117654,101.09308,41.208896)">
      <path
         id="path5131"
         style="fill:#fdb62f"
         d="M 35,41 V 61 H 3 V 41 a 6,6 0 0 1 6,-6 h 20 a 6,6 0 0 1 6,6 z"
         inkscape:connector-curvature="0" />
      <path
         id="path5133"
         style="fill:#ffdaaa"
         d="m 15,31 h 8 v 4 a 4,4 0 0 1 -4,4 v 0 a 4,4 0 0 1 -4,-4 z"
         inkscape:connector-curvature="0" />
      <path
         id="path5135"
         style="fill:#784a42"
         d="M 19,3 V 3 A 15,15 0 0 0 4,18 V 31 H 34 V 18 A 15,15 0 0 0 19,3 Z"
         inkscape:connector-curvature="0" />
      <path
         id="path5137"
         style="fill:#ffdaaa"
         d="M 9,19 H 6 a 2,2 0 0 0 -2,2 v 0 a 2,2 0 0 0 2,2 h 3 z"
         inkscape:connector-curvature="0" />
      <path
         id="path5139"
         style="fill:#ffdaaa"
         d="m 29,19 h 3 a 2,2 0 0 1 2,2 v 0 a 2,2 0 0 1 -2,2 h -3 z"
         inkscape:connector-curvature="0" />
      <path
         id="path5141"
         style="fill:#ffe9cc"
         d="M 30,22 V 15 H 8 v 7 a 11,11 0 0 0 11,11 v 0 A 11,11 0 0 0 30,22 Z"
         inkscape:connector-curvature="0" />
      <path
         id="path5143"
         style="fill:#784a42"
         d="m 17,22 h -2 v -1 a 1,1 0 0 0 -2,0 v 1 h -2 v -1 a 3,3 0 0 1 6,0 z"
         inkscape:connector-curvature="0" />
      <path
         id="path5145"
         style="fill:#784a42"
         d="m 27,22 h -2 v -1 a 1,1 0 0 0 -2,0 v 1 h -2 v -1 a 3,3 0 0 1 6,0 z"
         inkscape:connector-curvature="0" />
      <path
         id="path5147"
         style="fill:#784a42"
         d="m 19,30 a 4,4 0 0 1 -4,-4 v -1 h 2 v 1 a 2,2 0 0 0 4,0 v -1 h 2 v 1 a 4,4 0 0 1 -4,4 z"
         inkscape:connector-curvature="0" />
      <path
         id="path5149"
         style="fill:#a7d6dd"
         d="m 33,37 h 22 a 4,4 0 0 1 4,4 V 57 H 29 V 41 a 4,4 0 0 1 4,-4 z"
         inkscape:connector-curvature="0" />
      <path
         id="path5151"
         style="fill:#6cbbc7"
         d="m 27,57 h 34 v 2 a 2,2 0 0 1 -2,2 H 29 a 2,2 0 0 1 -2,-2 z"
         inkscape:connector-curvature="0" />
      <polygon
         id="polygon5153"
         style="fill:#02998a"
         points="39.293,50.707 35.586,47 39.293,43.293 40.707,44.707 38.414,47 40.707,49.293 " />
      <polygon
         id="polygon5155"
         style="fill:#02998a"
         points="48.707,50.707 47.293,49.293 49.586,47 47.293,44.707 48.707,43.293 52.414,47 " />
      <rect
         id="rect5157"
         y="46"
         x="40.838001"
         width="6.3249998"
         transform="rotate(-71.556,44.000109,46.999676)"
         style="fill:#02998a"
         height="2" />
      <rect
         id="rect5159"
         y="47"
         x="10"
         width="2"
         style="fill:#f5cf68"
         height="14" />
    </g>
    <g
       style="display:inline"
       id="g5250"
       transform="matrix(0.32113598,0,0,0.32113598,133.58587,36.059006)">
      <rect
         id="rect5213"
         y="22.833"
         x="43.208"
         width="5.8340001"
         height="64"
         style="fill:#7dbcc8" />
      <rect
         id="rect5215"
         y="22.833"
         x="80.167"
         width="6"
         height="64"
         style="fill:#58b2c4" />
      <circle
         id="circle5217"
         r="8"
         cy="40.833"
         cx="46.167"
         style="fill:#268a9c" />
      <circle
         id="circle5219"
         r="7.875"
         cy="51.833"
         cx="83.167"
         style="fill:#278093" />
      <g
         id="g5225">
        <rect
           id="rect5221"
           y="22.833"
           x="63.167"
           width="3"
           height="64"
           style="fill:#7dbcc8" />
        <rect
           id="rect5223"
           y="22.833"
           x="66.167"
           width="2.9159999"
           height="64"
           style="fill:#58b2c4" />
      </g>
      <g
         id="g5231">
        <path
           id="path5227"
           d="m 58.167,69.833 c 0,4.418 3.582,8 8,8 v -16 c -4.418,0 -8,3.583 -8,8 z"
           inkscape:connector-curvature="0"
           style="fill:#268a9c" />
        <path
           id="path5229"
           d="m 66.167,61.833 v 16 c 4.418,0 8,-3.582 8,-8 0,-4.418 -3.583,-8 -8,-8 z"
           inkscape:connector-curvature="0"
           style="fill:#278093" />
      </g>
    </g>
    <text
       xml:space="preserve"
       style="font-style:normal;font-variant:normal;font-weight:normal;font-stretch:normal;font-size:4.93888889px;line-height:1.25;font-family:sans-serif;-inkscape-font-specification:'sans-serif, Normal';font-variant-ligatures:normal;font-variant-caps:normal;font-variant-numeric:normal;font-feature-settings:normal;text-align:center;letter-spacing:0px;word-spacing:0px;writing-mode:lr;text-anchor:middle;fill:#000000;fill-opacity:1;stroke:none;stroke-width:0.26458332;"
       x="20.918753"
       y="73.613213"
       id="text5643"><tspan
         sodipodi:role="line"
         id="tspan5657"
         x="20.918753"
         y="73.613213"
         style="font-style:normal;font-variant:normal;font-weight:normal;font-stretch:normal;font-size:4.93888889px;font-family:sans-serif;-inkscape-font-specification:'sans-serif, Normal';font-variant-ligatures:normal;font-variant-caps:normal;font-variant-numeric:normal;font-feature-settings:normal;text-align:center;writing-mode:lr;text-anchor:middle;">Library, not</tspan><tspan
         sodipodi:role="line"
         id="tspan5659"
         x="20.918753"
         y="79.786827"
         style="font-style:normal;font-variant:normal;font-weight:normal;font-stretch:normal;font-size:4.93888889px;font-family:sans-serif;-inkscape-font-specification:'sans-serif, Normal';font-variant-ligatures:normal;font-variant-caps:normal;font-variant-numeric:normal;font-feature-settings:normal;text-align:center;writing-mode:lr;text-anchor:middle;">Framework</tspan></text>
    <text
       id="text5665"
       y="74.147751"
       x="68.275726"
       style="font-style:normal;font-variant:normal;font-weight:normal;font-stretch:normal;font-size:4.93888889px;line-height:1.25;font-family:sans-serif;-inkscape-font-specification:'sans-serif, Normal';font-variant-ligatures:normal;font-variant-caps:normal;font-variant-numeric:normal;font-feature-settings:normal;text-align:center;letter-spacing:0px;word-spacing:0px;writing-mode:lr;text-anchor:middle;fill:#000000;fill-opacity:1;stroke:none;stroke-width:0.26458332;"
       xml:space="preserve"><tspan
         sodipodi:role="line"
         id="tspan5667"
         x="68.275726"
         y="74.147751">Production</tspan><tspan
         sodipodi:role="line"
         id="tspan5669"
         x="68.275726"
         y="80.321365">First</tspan></text>
    <text
       xml:space="preserve"
       style="font-style:normal;font-variant:normal;font-weight:normal;font-stretch:normal;font-size:4.93888889px;line-height:1.25;font-family:sans-serif;-inkscape-font-specification:'sans-serif, Normal';font-variant-ligatures:normal;font-variant-caps:normal;font-variant-numeric:normal;font-feature-settings:normal;text-align:center;letter-spacing:0px;word-spacing:0px;writing-mode:lr;text-anchor:middle;fill:#000000;fill-opacity:1;stroke:none;stroke-width:0.26458332;"
       x="112.69408"
       y="73.940315"
       id="text5679"><tspan
         sodipodi:role="line"
         id="tspan5681"
         x="112.69408"
         y="73.940315">Human</tspan><tspan
         sodipodi:role="line"
         id="tspan5683"
         x="112.69408"
         y="80.11393">Friendly</tspan></text>
    <text
       id="text5689"
       y="74.147751"
       x="154.16357"
       style="font-style:normal;font-variant:normal;font-weight:normal;font-stretch:normal;font-size:4.93888889px;line-height:1.25;font-family:sans-serif;-inkscape-font-specification:'sans-serif, Normal';font-variant-ligatures:normal;font-variant-caps:normal;font-variant-numeric:normal;font-feature-settings:normal;text-align:center;letter-spacing:0px;word-spacing:0px;writing-mode:lr;text-anchor:middle;fill:#000000;fill-opacity:1;stroke:none;stroke-width:0.26458332;"
       xml:space="preserve"><tspan
         sodipodi:role="line"
         id="tspan5691"
         x="154.16357"
         y="74.147751">Flexible</tspan></text>
  </g>
  <style
     id="style4981"
     type="text/css">
	.st0{fill:#E9EAEB;}
	.st1{fill:none;stroke:#BCC0C4;stroke-width:2;stroke-miterlimit:10;}
	.st2{fill:#A3D4FF;stroke:#2A5082;stroke-width:2;stroke-miterlimit:10;}
	.st3{fill:#FFFFFF;stroke:#2A5082;stroke-width:2;stroke-miterlimit:10;}
	.st4{fill:none;stroke:#2A5082;stroke-width:2;stroke-miterlimit:10;}
</style>
</svg>
