<?xml version="1.0" ?><svg id="electronic_x5F_component" style="enable-background:new 0 0 64 64;" version="1.1" viewBox="0 0 64 64" xml:space="preserve" xmlns="http://www.w3.org/2000/svg" xmlns:xlink="http://www.w3.org/1999/xlink"><style type="text/css">
	.st0{fill:#E9EAEB;}
	.st1{fill:none;stroke:#BCC0C4;stroke-width:2;stroke-miterlimit:10;}
	.st2{fill:#A3D4FF;stroke:#2A5082;stroke-width:2;stroke-miterlimit:10;}
	.st3{fill:#FFFFFF;stroke:#2A5082;stroke-width:2;stroke-miterlimit:10;}
	.st4{fill:none;stroke:#2A5082;stroke-width:2;stroke-miterlimit:10;}
</style><circle class="st0" cx="32" cy="32" r="24.5"/><polyline class="st1" points="57,21 53.1,21 49,27 41,27 "/><line class="st1" x1="57" x2="41" y1="32" y2="32"/><circle class="st1" cx="60" cy="21" r="3"/><polyline class="st1" points="57,43 53.1,43 49.1,37 41,37 "/><circle class="st1" cx="60" cy="43" r="3"/><circle class="st1" cx="60" cy="32" r="3"/><line class="st1" x1="32" x2="32" y1="53" y2="37"/><line class="st1" x1="41" x2="41" y1="53" y2="37"/><line class="st1" x1="23" x2="23" y1="53" y2="37"/><line class="st1" x1="32" x2="32" y1="9" y2="23"/><circle class="st1" cx="32" cy="7" r="3"/><line class="st1" x1="41" x2="41" y1="9" y2="23"/><circle class="st1" cx="41" cy="7" r="3"/><line class="st1" x1="23" x2="23" y1="9" y2="23"/><circle class="st1" cx="23" cy="7" r="3"/><polyline class="st1" points="7,21 10.9,21 15,27 23,27 "/><line class="st1" x1="7" x2="23" y1="32" y2="32"/><circle class="st1" cx="4" cy="21" r="3"/><polyline class="st1" points="7,43 10.9,43 14.9,37 23,37 "/><circle class="st1" cx="4" cy="43" r="3"/><circle class="st1" cx="4" cy="32" r="3"/><path class="st2" d="M45,41c0,1.7-1.3,3-3,3H22c-1.7,0-3-1.3-3-3V23c0-1.7,1.3-3,3-3h20c1.7,0,3,1.3,3,3V41z"/><rect class="st3" height="10" width="10" x="27" y="27"/><line class="st4" x1="23" x2="23" y1="27" y2="29"/><line class="st4" x1="23" x2="23" y1="31" y2="33"/><line class="st4" x1="23" x2="23" y1="35" y2="37"/><line class="st4" x1="41" x2="41" y1="27" y2="29"/><line class="st4" x1="41" x2="41" y1="31" y2="33"/><line class="st4" x1="41" x2="41" y1="35" y2="37"/><circle class="st1" cx="32" cy="56" r="3"/><circle class="st1" cx="41" cy="56" r="3"/><circle class="st1" cx="23" cy="56" r="3"/></svg>