<?xml version="1.0" ?><svg viewBox="0 0 64 64" xmlns="http://www.w3.org/2000/svg"><g id="Flat"><path d="M35,41V61H3V41a6,6,0,0,1,6-6H29A6,6,0,0,1,35,41Z" style="fill:#fdb62f"/><path d="M15,31h8v4a4,4,0,0,1-4,4h0a4,4,0,0,1-4-4Z" style="fill:#ffdaaa"/><path d="M19,3h0A15,15,0,0,0,4,18V31H34V18A15,15,0,0,0,19,3Z" style="fill:#784a42"/><path d="M9,19H6a2,2,0,0,0-2,2H4a2,2,0,0,0,2,2H9Z" style="fill:#ffdaaa"/><path d="M29,19h3a2,2,0,0,1,2,2h0a2,2,0,0,1-2,2H29Z" style="fill:#ffdaaa"/><path d="M30,22V15H8v7A11,11,0,0,0,19,33h0A11,11,0,0,0,30,22Z" style="fill:#ffe9cc"/><path d="M17,22H15V21a1,1,0,0,0-2,0v1H11V21a3,3,0,0,1,6,0Z" style="fill:#784a42"/><path d="M27,22H25V21a1,1,0,0,0-2,0v1H21V21a3,3,0,0,1,6,0Z" style="fill:#784a42"/><path d="M19,30a4,4,0,0,1-4-4V25h2v1a2,2,0,0,0,4,0V25h2v1A4,4,0,0,1,19,30Z" style="fill:#784a42"/><path d="M33,37H55a4,4,0,0,1,4,4V57a0,0,0,0,1,0,0H29a0,0,0,0,1,0,0V41A4,4,0,0,1,33,37Z" style="fill:#a7d6dd"/><path d="M27,57H61v2a2,2,0,0,1-2,2H29a2,2,0,0,1-2-2Z" style="fill:#6cbbc7"/><polygon points="39.293 50.707 35.586 47 39.293 43.293 40.707 44.707 38.414 47 40.707 49.293 39.293 50.707" style="fill:#02998a"/><polygon points="48.707 50.707 47.293 49.293 49.586 47 47.293 44.707 48.707 43.293 52.414 47 48.707 50.707" style="fill:#02998a"/><rect height="2" style="fill:#02998a" transform="translate(-14.506 73.87) rotate(-71.556)" width="6.325" x="40.838" y="46"/><rect height="14" style="fill:#f5cf68" width="2" x="10" y="47"/></g></svg>