<?xml version="1.0" encoding="UTF-8"?>
<svg width="650" height="320" version="1.1" viewBox="0 0 171.97917 84.666665" xmlns="http://www.w3.org/2000/svg" xmlns:cc="http://creativecommons.org/ns#" xmlns:dc="http://purl.org/dc/elements/1.1/" xmlns:rdf="http://www.w3.org/1999/02/22-rdf-syntax-ns#">
<defs>
<clipPath id="a">
<path d="m13.201 40.659a27.786 27.786 0 0 0 -0.11667 31.816 18.236 18.236 0 0 1 3.1896 11.364 34.279 34.279 0 0 0 53.02 30.546 18.896 18.896 0 0 1 15.799 -2.3415c14.259 4.2143 31.353-4.1039 34.088-24.487a15.376 15.376 0 0 0 -1.1504 -7.3461 19.059 19.059 0 0 1 0.17881 -13.695 26.383 26.383 0 0 0 -18.022 -35.093 33.801 33.801 0 0 1 -17.667 -11.968 26.859 26.859 0 0 0 -43.863 2.7971 18.226 18.226 0 0 1 -10.585 7.7558 27.63 27.63 0 0 0 -14.872 10.653z" fill="#c9c1f5" opacity=".3"/>
</clipPath>
</defs>
<metadata>
<rdf:RDF>
<cc:Work rdf:about="">
<dc:format>image/svg+xml</dc:format>
<dc:type rdf:resource="http://purl.org/dc/dcmitype/StillImage"/>
<dc:title/>
</cc:Work>
</rdf:RDF>
</metadata>
<g transform="translate(0 -212.33)">
<text x="13.938089" y="242.2032" fill="#000000" font-family="sans-serif" font-size="5.2917px" letter-spacing="0px" stroke-width=".26458" word-spacing="0px" style="font-feature-settings:normal;font-variant-caps:normal;font-variant-ligatures:normal;font-variant-numeric:normal;line-height:1.25" xml:space="preserve"><tspan x="13.938089" y="242.2032" fill="#0366d6" font-family="sans-serif" font-size="5.2917px" stroke-width=".26458" style="font-feature-settings:normal;font-variant-caps:normal;font-variant-ligatures:normal;font-variant-numeric:normal">A Lightweight Server-Side Rendering Engine for React Apps</tspan></text>
<g transform="translate(2.205 -1.8128)" fill="#0366d6" stroke-width=".26458" aria-label="GOURMET SSR">
<path d="m52.312 224.05h0.72602v3.882q-0.68157 0.65193-1.6595 0.99272-0.96308 0.34078-2.0447 0.34078-1.5409 0-2.7855-0.68157-1.2298-0.68156-1.941-1.8817-0.69638-1.2002-0.69638-2.6966 0-1.4965 0.69638-2.6966 0.7112-1.2002 1.941-1.8817 1.2446-0.68156 2.8004-0.68156 1.1409 0 2.0892 0.37041 0.96308 0.3556 1.6446 1.052l-0.47413 0.50376q-0.65193-0.65193-1.4668-0.93345-0.8001-0.29633-1.778-0.29633-1.3335 0-2.4151 0.59267-1.0668 0.59266-1.6743 1.6446-0.60748 1.0372-0.60748 2.3262 0 1.2742 0.60748 2.3262 0.6223 1.0372 1.6891 1.6446 1.0668 0.59267 2.4003 0.59267 1.778 0 2.9485-0.94827z"/>
<path d="m59.573 229.26q-1.5261 0-2.7559-0.68157-1.2298-0.69638-1.941-1.8965-0.69638-1.2002-0.69638-2.6818 0-1.4817 0.69638-2.6818 0.7112-1.2002 1.941-1.8817 1.2298-0.69638 2.7559-0.69638 1.5261 0 2.7559 0.68156 1.2298 0.68157 1.9262 1.8817 0.7112 1.2002 0.7112 2.6966 0 1.4965-0.7112 2.6966-0.69638 1.2002-1.9262 1.8817-1.2298 0.68157-2.7559 0.68157zm0-0.69638q1.3039 0 2.3558-0.59267 1.052-0.59267 1.6595-1.6298 0.60748-1.052 0.60748-2.341t-0.60748-2.3262q-0.60748-1.052-1.6595-1.6446-1.052-0.59267-2.3558-0.59267-1.3039 0-2.3707 0.59267-1.052 0.59266-1.6595 1.6446-0.60748 1.0372-0.60748 2.3262t0.60748 2.341q0.60748 1.0372 1.6595 1.6298 1.0668 0.59267 2.3707 0.59267z"/>
<path d="m70.457 229.26q-1.9706 0-3.067-1.1409-1.0816-1.1409-1.0816-3.3338v-5.9711h0.75565v5.9415q0 1.9114 0.87418 2.8596 0.87418 0.94827 2.5336 0.94827 1.6446 0 2.5188-0.94827t0.87418-2.8596v-5.9415h0.75565v5.9711q0 2.1929-1.0964 3.3338-1.0964 1.1409-3.067 1.1409z"/>
<path d="m84.156 229.19-2.4744-3.4671q-0.54822 0.0741-1.0075 0.0741h-2.9633v3.393h-0.75565v-10.372h3.719q1.9558 0 3.067 0.93345 1.1112 0.91863 1.1112 2.5633 0 1.2298-0.63712 2.0743-0.6223 0.82973-1.7928 1.1705l2.5929 3.6301zm-3.4819-4.0598q1.6595 0 2.5336-0.72602 0.87418-0.74083 0.87418-2.0892 0-1.3483-0.87418-2.0743-0.87418-0.74083-2.5336-0.74083h-2.9633v5.6303z"/>
<path d="m96.252 229.19-0.01482-8.8752-4.3413 7.4972h-0.37042l-4.3413-7.4676v8.8456h-0.74083v-10.372h0.63712l4.6376 8.0158 4.6376-8.0158h0.6223l0.01482 10.372z"/>
<path d="m106.56 228.51v0.68157h-7.1564v-10.372h6.9342v0.68157h-6.1786v4.0894h5.5266v0.66675h-5.5266v4.2524z"/>
<path d="m110.12 219.5h-3.7338v-0.68157h8.2232v0.68157h-3.7338v9.6901h-0.75565z"/>
<path d="m120.65 229.28q-1.1557 0-2.2225-0.37042-1.052-0.37042-1.6298-0.9779l0.42968-0.84455q0.56303 0.56303 1.4965 0.91863 0.93345 0.34079 1.9262 0.34079 1.3928 0 2.0892-0.50377 0.69638-0.51858 0.69638-1.3335 0-0.6223-0.38523-0.99272-0.37042-0.37041-0.91863-0.56303-0.54822-0.20743-1.5261-0.4445-1.1705-0.29633-1.8669-0.56303-0.69638-0.28152-1.2002-0.84455-0.48895-0.56304-0.48895-1.5261 0-0.78528 0.41487-1.4224 0.41486-0.65193 1.2742-1.0372 0.85937-0.38523 2.1336-0.38523 0.889 0 1.7336 0.25188 0.85937 0.23707 1.4817 0.66675l-0.37042 0.87419q-0.65193-0.42969-1.3928-0.63712-0.74083-0.22225-1.452-0.22225-1.3631 0-2.0595 0.5334-0.68156 0.51858-0.68156 1.3483 0 0.6223 0.37041 1.0075 0.38524 0.37042 0.94827 0.57785 0.57785 0.19262 1.5409 0.42968 1.1409 0.28152 1.8373 0.56304 0.7112 0.2667 1.2002 0.82973 0.48895 0.54822 0.48895 1.4965 0 0.78529-0.42968 1.4372-0.41487 0.63712-1.289 1.0224-0.87419 0.37042-2.1484 0.37042z"/>
<path d="m129.24 229.28q-1.1557 0-2.2225-0.37042-1.052-0.37042-1.6298-0.9779l0.42969-0.84455q0.56303 0.56303 1.4965 0.91863 0.93345 0.34079 1.9262 0.34079 1.3928 0 2.0892-0.50377 0.69638-0.51858 0.69638-1.3335 0-0.6223-0.38523-0.99272-0.37042-0.37041-0.91864-0.56303-0.54821-0.20743-1.5261-0.4445-1.1705-0.29633-1.8669-0.56303-0.69639-0.28152-1.2002-0.84455-0.48895-0.56304-0.48895-1.5261 0-0.78528 0.41486-1.4224 0.41487-0.65193 1.2742-1.0372 0.85936-0.38523 2.1336-0.38523 0.889 0 1.7336 0.25188 0.85936 0.23707 1.4817 0.66675l-0.37041 0.87419q-0.65194-0.42969-1.3928-0.63712-0.74083-0.22225-1.452-0.22225-1.3631 0-2.0595 0.5334-0.68157 0.51858-0.68157 1.3483 0 0.6223 0.37042 1.0075 0.38523 0.37042 0.94827 0.57785 0.57785 0.19262 1.5409 0.42968 1.1409 0.28152 1.8373 0.56304 0.7112 0.2667 1.2002 0.82973 0.48895 0.54822 0.48895 1.4965 0 0.78529-0.42969 1.4372-0.41486 0.63712-1.289 1.0224-0.87418 0.37042-2.1484 0.37042z"/>
<path d="m142.05 229.19-2.3707-3.3338q-0.40005 0.0445-0.82973 0.0445h-2.7855v3.2893h-1.0964v-10.372h3.882q1.9854 0 3.1115 0.94827 1.1261 0.94826 1.1261 2.6077 0 1.215-0.6223 2.0595-0.60749 0.82973-1.7484 1.2002l2.5336 3.556zm-3.23-4.2228q1.5409 0 2.3558-0.68157 0.81491-0.68157 0.81491-1.9114 0-1.2594-0.81491-1.9262-0.81492-0.68156-2.3558-0.68156h-2.7559v5.2006z"/>
</g>
<flowRoot fill="black" font-family="sans-serif" font-size="40px" letter-spacing="0px" word-spacing="0px" style="line-height:1.25" xml:space="preserve"><flowRegion><rect x="455.07" y="78.574" width="19.873" height="64.049"/></flowRegion><flowPara/></flowRoot>
<g transform="matrix(.19347 0 0 .19347 26.528 213.48)">
<path d="m45.236-0.066406a45.101 45.101 0 0 0 -45.102 45.102 45.101 45.101 0 0 0 45.102 45.1 45.101 45.101 0 0 0 45.1 -45.1 45.101 45.101 0 0 0 -45.1 -45.102zm-14.77 31.385a3.0003 3.0003 0 0 1 2.1465 5.1641l-8.623 8.5176 8.623 8.5176a3.0003 3.0003 0 1 1 -4.2148 4.2695l-10.787-10.652a3.0003 3.0003 0 0 1 -0.08203 -0.08398 3.0004 3.0004 0 0 1 -0.0078 -0.0078 3.0003 3.0003 0 0 1 0.44141 -4.5254l10.436-10.305a3.0003 3.0003 0 0 1 2.0684 -0.89453zm28.977 0a3.0003 3.0003 0 0 1 2.1582 0.89453l10.443 10.314a3.0003 3.0003 0 0 1 0.34375 4.6074l-0.0293 0.0293a3.0004 3.0004 0 0 1 -0.0059 0.0059l-0.0039 2e-3 -10.748 10.615a3.0003 3.0003 0 1 1 -4.2148 -4.2696l8.623-8.5176-8.623-8.5176a3.0003 3.0003 0 0 1 2.0566 -5.1641zm-9.4102 1.0176a3.0003 3.0003 0 0 1 0.20898 0 3.0003 3.0003 0 0 1 2.5801 4.3398l-9.291 19.256a3.0003 3.0003 0 1 1 -5.4043 -2.6074l9.291-19.256a3.0003 3.0003 0 0 1 2.6152 -1.7324z" fill="#0366d6"/>
</g>
</g>
<g>
<g transform="matrix(.20118 0 0 .20118 55.434 44.405)">
<path d="m13.201 40.659a27.786 27.786 0 0 0 -0.11667 31.816 18.236 18.236 0 0 1 3.1896 11.364 34.279 34.279 0 0 0 53.02 30.546 18.896 18.896 0 0 1 15.799 -2.3415c14.259 4.2143 31.353-4.1039 34.088-24.487a15.376 15.376 0 0 0 -1.1504 -7.3461 19.059 19.059 0 0 1 0.17881 -13.695 26.383 26.383 0 0 0 -18.022 -35.093 33.801 33.801 0 0 1 -17.667 -11.968 26.859 26.859 0 0 0 -43.863 2.7971 18.226 18.226 0 0 1 -10.585 7.7558 27.63 27.63 0 0 0 -14.872 10.653z" fill="#c9c1f5" opacity=".3"/>
<g clip-path="url(#a)">
<path d="m126 125.94a63.78 63.78 0 0 0 -124 -2.1574v3.219h124z" fill="#ff99b1"/>
<path d="m63.75 76a63.799 63.799 0 0 0 -61.75 47.781v3.2191h5.6541a63.758 63.758 0 0 1 103.67 -29.684 63.603 63.603 0 0 0 -47.572 -21.316z" fill="#fff" opacity=".5"/>
<path d="m126 127v-1.0768a63.754 63.754 0 0 0 -21.735 -35.4 63.468 63.468 0 0 1 11.11 35.963c0 0.17212-0.0112 0.34149-0.0125 0.51324z" fill="#750000" opacity=".15"/>
<g fill="#fedbc1" opacity=".5">
<path d="m103.89 90.553c-19.532-13.629-51.195-7.548-74.052 15.309a81.717 81.717 0 0 0 -15.349 21.138h21.32c2.2819-2.6528 4.7143-5.2843 7.2987-7.8687 21.835-21.835 46.976-33.202 60.782-28.578z"/>
<path d="m63.381 127h25.202c14.464-16.562 22.938-29.645 20.261-32.321-3.3545-3.3545-23.05 10.798-45.463 32.321z"/>
</g>
<path d="m108.85 127h11.475c0.55731-10.158-1.7412-19.717-7.1002-27.397 2.3131 6.9066 0.62412 16.65-4.3748 27.397z" fill="#fedbc1" opacity=".5"/>
<path d="m126 128h-124a0.99942 0.99942 0 0 1 -1 -1v-3.2188a0.98649 0.98649 0 0 1 0.03223 -0.25 64.78 64.78 0 0 1 125.94 2.1914 1.0007 1.0007 0 0 1 0.0234 0.21582v1.0615a0.99942 0.99942 0 0 1 -0.99997 1zm-123-2h121.99a62.78 62.78 0 0 0 -121.99 -2.0908z" fill="#6d6daa"/>
</g>
<path d="m54.931 72.931c-0.80364 6.8987 0.91346 13.928 4.4278 18.128l5.0476 6.0319 5.0476-6.0319c3.5143-4.1998 5.2314-11.229 4.4278-18.128l-1.8818-12.931h-15z" fill="#ff9797"/>
<path d="m59.267 70.291a28.669 28.669 0 0 0 -0.71179 6.4946c0 7.4994 5.8507 13.579 5.8507 13.579s5.8507-6.0795 5.8507-13.579a28.669 28.669 0 0 0 -0.71179 -6.4946l-1.5453-7.791h-7z" fill="#fff27d"/>
<path d="m61.729 70.291a14.934 14.934 0 0 0 -0.37078 3.3831c0 3.9065 3.0477 7.0734 3.0477 7.0734s3.0477-3.1669 3.0477-7.0734a14.934 14.934 0 0 0 -0.3708 -3.3831l-1.0833-5.5037h-3z" fill="#fff"/>
<path d="m52.414 59.344-0.57012-10.347c-4.8448 2.3062-8.057 6.3506-8.3658 10.917l-0.56861 8.408c-0.09754 1.4426 2.4257 1.9723 3.2465 0.67641a26.469 26.469 0 0 1 7.1622 -7.9824 2.3149 2.3149 0 0 1 -0.90412 -1.6716z" fill="#c9c1f5"/>
<path d="m45.521 69.526 0.47957-7.0905c0.25616-3.7875 2.53-7.1995 6.056-9.5749l-0.21289-3.8647c-4.8449 2.3062-8.0569 6.3506-8.3658 10.917l-0.56867 8.408c-0.07891 1.1679 1.5493 1.718 2.6118 1.2051z" fill="#fff" opacity=".5"/>
<path d="m85.335 59.913c-0.30877-4.5664-3.521-8.6105-8.366-10.917l-0.57 10.347a2.3149 2.3149 0 0 1 -0.90412 1.6715 26.47 26.47 0 0 1 7.1622 7.9826c0.82079 1.2957 3.344 0.76622 3.2465-0.67641z" fill="#c9c1f5"/>
<path d="m76.969 48.996-0.2239 4.0662c3.6298 2.3792 5.9727 5.846 6.2332 9.698l0.46263 6.8396c1.0593 0.39263 2.5381-0.166 2.4629-1.2788l-0.56872-8.4081c-0.30878-4.5664-3.5209-8.6105-8.366-10.917z" fill="#fff" opacity=".5"/>
<path d="m62.017 54.651-1.5e-4 -5e-5c-5.6108-0.44415-10.103-2.2572-10.103-4.4293l-0.0029-0.0016 0.50261 9.1234c-5e-5 2.1579 4.2649 3.9604 9.6037 4.4192z" fill="#9eb2cc"/>
<path d="m66.795 63.763c5.3386-0.45894 9.6036-2.2613 9.6037-4.4192l0.50251-9.1234-0.0029 0.0017c-5e-5 2.1721-4.4924 3.9851-10.103 4.4293z" fill="#9eb2cc"/>
<path d="m66.795 63.763c5.3386-0.45894 9.6036-2.2613 9.6037-4.4192l0.50251-9.1234-0.0029 0.0017c-5e-5 2.1721-4.4924 3.9851-10.103 4.4293z" fill="#9eb2cc"/>
<path d="m64.406 6.4297a38.195 38.195 0 0 0 -12.686 24.013 50.041 50.041 0 0 0 -0.37677 9.4688l0.5679 10.308 0.0029 0.0016c-5e-5 2.1721 4.4925 3.9852 10.103 4.4293l1.5e-4 5e-5v-4.0272a2.3889 2.3889 0 0 1 4.7778 0l5e-5 4.0272c5.6109-0.44421 10.103-2.2572 10.103-4.4293l0.0029-0.0017 0.5679-10.308a50.036 50.036 0 0 0 -0.37669 -9.4688 38.195 38.195 0 0 0 -12.686 -24.013z" fill="#eef6ff"/>
<path d="m64.406 18.524c3.408 8e-5 6.3864-0.89453 8.014-2.225a35.724 35.724 0 0 0 -8.014 -9.8696 35.725 35.725 0 0 0 -8.0141 9.8697c1.6276 1.3304 4.606 2.2249 8.0141 2.2249z" fill="#c9c1f5"/>
<path d="m64.297 7.5078q0.05343-0.55368 0.109-1.078l-0.00935 0.00829q-0.35883 0.51988-0.703 1.0697c-0.10788 0.172-0.21125 0.35259-0.317 0.52884-0.11948 0.19924-0.24045 0.39535-0.35706 0.59982-0.142 0.24866-0.27884 0.5061-0.41665 0.76226-0.0736 0.13714-0.149 0.27089-0.22136 0.41013-0.15962 0.3063-0.3139 0.62091-0.46751 0.93722-0.0447 0.09233-0.09084 0.1824-0.135 0.27561-0.16932 0.35572-0.33324 0.7194-0.49491 1.0871-0.02428 0.05538-0.04922 0.10958-0.07344 0.16521q-0.2589 0.59594-0.50348 1.2125l-0.03264 0.08119q-0.25682 0.6476-0.49794 1.3162l-0.0071 0.0195q-0.24682 0.68363-0.47716 1.3876l-3.1e-4 1e-3c-0.15541 0.47464-0.28377 0.9789-0.42778 1.4661a16.391 16.391 0 0 0 4.3181 0.73927c0.032-0.74224 0.06308-1.4915 0.099-2.2048v-0.00149q0.03557-0.70411 0.07344-1.3876l0.0011-0.01955q0.03726-0.66823 0.07663-1.3162l5e-3 -0.08119q0.03772-0.61558 0.07745-1.2125l0.01129-0.16516c0.02484-0.36768 0.05009-0.73136 0.07616-1.0871 0.0067-0.09315 0.01386-0.18323 0.02079-0.27556 0.02356-0.31631 0.04737-0.63092 0.0719-0.93722 0.01114-0.13924 0.02274-0.273 0.034-0.41013 0.0212-0.25616 0.04224-0.5136 0.0641-0.76221 0.01791-0.20452 0.03654-0.40063 0.05492-0.59987 0.01642-0.17627 0.03227-0.35687 0.04885-0.52886z" fill="#fff" opacity=".5"/>
<path d="m64.406 6.4297 7.2e-4 -7e-3l-0.01003 0.01529z" fill="#fff" opacity=".75"/>
<path d="m59.265 17.758a62.365 62.365 0 0 0 -2.3212 12.678 84.836 84.836 0 0 0 -0.22167 9.4688l0.33417 10.308 0.1182 3.6473a27.964 27.964 0 0 0 4.843 0.79054l1.5e-4 5e-5 1.2587-4.4379-0.05137-10.308c-0.01576-3.1625-0.0044-6.3369 0.03408-9.4689 0.05189-4.228 0.16465-8.2444 0.3239-11.939a16.391 16.391 0 0 1 -4.3181 -0.73928z" fill="#fff" opacity=".75"/>
<g opacity=".5">
<path d="m62.017 54.651-1.5e-4 -5e-5a27.964 27.964 0 0 1 -4.843 -0.79054l0.17743 5.4761c5e-5 1.9259 2.0031 3.5616 4.6658 4.2188z" fill="#fff"/>
</g>
<path d="m77.093 30.436a40.005 40.005 0 0 0 -5.4849 -15.534l-0.01-0.01619q-0.41133-0.66957-0.848-1.3188c-0.01793-0.02664-0.03636-0.05277-0.05429-0.07933q-0.41764-0.61644-0.857-1.2139c-0.04065-0.05516-0.08289-0.10909-0.1239-0.16411-0.27494-0.36792-0.554-0.73192-0.842-1.088-0.075-0.093-0.153-0.18284-0.22885-0.275-0.2613-0.31653-0.5239-0.63147-0.79529-0.93791-0.12172-0.13776-0.24852-0.27-0.37228-0.40574-0.23575-0.258-0.47019-0.51722-0.7132-0.76763-0.19321-0.19938-0.39391-0.39057-0.59177-0.58494-0.18465-0.18117-0.36538-0.36676-0.55388-0.54357q-0.59293-0.55667-1.211-1.084l-7e-5 7e-5q0.364 0.52641 0.71247 1.0839c0.11091 0.17681 0.21724 0.3624 0.3259 0.54357 0.11635 0.19438 0.23444 0.38556 0.34811 0.58494 0.143 0.25041 0.28089 0.50967 0.4196 0.76763 0.0728 0.13573 0.14742 0.268 0.219 0.40574 0.15968 0.30644 0.31414 0.62138 0.46787 0.93791 0.04464 0.09218 0.09058 0.182 0.13471 0.275 0.16934 0.35609 0.33352 0.72009 0.4953 1.088 0.0241 0.055 0.04892 0.10895 0.07287 0.16411q0.25923 0.59674 0.50416 1.2139l0.03194 0.07933q0.25727 0.649 0.49886 1.3188l6e-3 0.01619a60.288 60.288 0 0 1 3.2269 15.534 84.808 84.808 0 0 1 0.22159 9.4688l-0.3341 10.308-0.29563 9.1234c-7e-5 2.158-2.5092 3.9603-5.65 4.4193h0.98349c5.3385-0.45894 9.6036-2.2613 9.6037-4.4193l0.50249-9.1234 0.56795-10.308a50.033 50.033 0 0 0 -0.3767 -9.4688z" fill="#2c4b75" opacity=".2"/>
<circle transform="rotate(-45 64.406 31.502)" cx="64.406" cy="31.502" r="4.7568" fill="#96d7ff"/>
<path d="m63.565 30.662a4.7527 4.7527 0 0 1 5.2163 -1.0119 4.7568 4.7568 0 1 0 -6.2282 6.2282 4.7529 4.7529 0 0 1 1.0119 -5.2163z" fill="#2c4b75" opacity=".2"/>
<path d="m61.043 28.139a4.7376 4.7376 0 0 0 3.7987 8.0785v-9.4301a4.7258 4.7258 0 0 0 -3.7987 1.3516z" fill="#fff" opacity=".5"/>
<path d="m64.406 98.092a0.99735 0.99735 0 0 1 -0.7666 -0.3584l-5.0478-6.0322c-3.7119-4.4365-5.4951-11.673-4.6543-18.885a0.98916 0.98916 0 0 1 1.1094 -0.87793 0.99964 0.99964 0 0 1 0.877 1.1094c-0.7666 6.584 0.88184 13.402 4.2012 17.37l4.2812 5.1152 4.2812-5.1152c3.3193-3.9668 4.9688-10.785 4.2012-17.37a0.99964 0.99964 0 0 1 0.877 -1.1094 0.987 0.987 0 0 1 1.1094 0.87793c0.84082 7.2129-0.94238 14.45-4.6543 18.885l-5.0479 6.0322a0.99735 0.99735 0 0 1 -0.7666 0.3584z" fill="#6d6daa"/>
<path d="m44.667 70.735a3.3343 3.3343 0 0 1 -1.0244 -0.16113 2.3057 2.3057 0 0 1 -1.7314 -2.3203l0.56836-8.4082c0.3291-4.8525 3.669-9.2461 8.9346-11.753a0.99917 0.99917 0 0 1 1.4277 0.84863l0.57031 10.348c1e-3 0.01758 2e-3 0.03613 2e-3 0.05469a1.4784 1.4784 0 0 0 0.57324 0.92871 1.0011 1.0011 0 0 1 -0.11523 1.5752 25.163 25.163 0 0 0 -6.8721 7.6855 2.6776 2.6776 0 0 1 -2.333 1.2022zm6.2646-20.125c-3.8242 2.2451-6.2051 5.666-6.456 9.3701l-0.56836 8.4082c-0.0088 0.12988 0.22949 0.24316 0.35645 0.28516a0.962 0.962 0 0 0 1.0469 -0.21094 29.015 29.015 0 0 1 6.5459 -7.6299 2.7987 2.7987 0 0 1 -0.44238 -1.458z" fill="#6d6daa"/>
<path d="m84.146 70.735a2.6776 2.6776 0 0 1 -2.333 -1.2022 25.165 25.165 0 0 0 -6.8721 -7.6856 1.0011 1.0011 0 0 1 -0.11523 -1.5752 1.4832 1.4832 0 0 0 0.57422 -0.93066l0.57129-10.4a0.99917 0.99917 0 0 1 1.4277 -0.84863c5.2666 2.5068 8.6064 6.9004 8.9346 11.753l0.56836 8.4082a2.3057 2.3057 0 0 1 -1.7314 2.3203 3.3343 3.3343 0 0 1 -1.0244 0.16114zm-7.1875-9.9014a29.008 29.008 0 0 1 6.544 7.6289 0.96372 0.96372 0 0 0 1.0469 0.21094c0.127-0.042 0.36523-0.15527 0.35645-0.28516l-0.56836-8.4082c-0.25-3.7041-2.6318-7.125-6.4551-9.3701l-0.48437 8.7881a2.689 2.689 0 0 1 -0.43952 1.4356z" fill="#6d6daa"/>
<path d="m62.019 64.763c-0.02832 0-0.05762-1e-3 -0.08691-0.0039-5.2354-0.4502-10.518-2.2988-10.518-5.415l-0.501-9.0684a1.0012 1.0012 0 1 1 2.001 -0.05371c0 1.1055 3.2695 2.9648 9.1826 3.4326a1.0002 1.0002 0 1 1 -0.1582 1.9941c-3.3623-0.2666-6.7422-1.0625-8.8564-2.3633l0.33008 6.0039c2e-3 1.1484 3.0967 2.9961 8.6914 3.4775a0.9999 0.9999 0 0 1 -0.085 1.9961z" fill="#6d6daa"/>
<path d="m66.794 64.763a0.9999 0.9999 0 0 1 -0.085 -1.9961c5.5947-0.48145 8.6894-2.3291 8.6904-3.4228l0.332-6.0586c-2.1143 1.3008-5.4951 2.0967-8.8574 2.3633a1.0002 1.0002 0 1 1 -0.1582 -1.9941c5.9131-0.46777 9.1826-2.3272 9.1826-3.4326a1.0012 1.0012 0 1 1 2.001 0.05273l-0.502 9.124c1e-3 3.0615-5.2822 4.9102-10.517 5.3604-0.02922 0.0029-0.05851 0.0039-0.08683 0.0039z" fill="#6d6daa"/>
<path d="m66.794 55.651a1.0001 1.0001 0 0 1 -0.07812 -1.9971c5.9131-0.46777 9.1826-2.3272 9.1826-3.4326a0.95661 0.95661 0 0 1 0.0088 -0.12988l0.56444-10.234a49.091 49.091 0 0 0 -0.37012 -9.2793 37.121 37.121 0 0 0 -11.695 -22.82 37.121 37.121 0 0 0 -11.695 22.82 49.293 49.293 0 0 0 -0.37012 9.2793l0.56445 10.234a0.95661 0.95661 0 0 1 0.0088 0.12988c0 1.1055 3.2695 2.9648 9.1826 3.4326a1.0002 1.0002 0 1 1 -0.1582 1.9941c-5.4316-0.43066-10.912-2.2441-11.022-5.332a0.28967 0.28967 0 0 1 -0.0029 -0.041l-0.5684-10.309a51.247 51.247 0 0 1 0.38379 -9.6572 38.981 38.981 0 0 1 13.029 -24.642 0.99988 0.99988 0 0 1 1.2969 0 38.981 38.981 0 0 1 13.029 24.641 51.144 51.144 0 0 1 0.38379 9.6582l-0.56836 10.308a0.28967 0.28967 0 0 1 -0.0029 0.041c-0.1084 3.0889-5.5898 4.9023-11.022 5.333-0.02736 2e-3 -0.05373 3e-3 -0.08009 3e-3z" fill="#6d6daa"/>
<path d="m64.406 19.524c-3.5371 0-6.7695-0.916-8.6465-2.4502a1.0005 1.0005 0 0 1 -0.24121 -1.2607 36.608 36.608 0 0 1 8.2392 -10.145 0.99988 0.99988 0 0 1 1.2969 0 36.589 36.589 0 0 1 8.2393 10.144 1.0005 1.0005 0 0 1 -0.24121 1.2607c-1.876 1.5352-5.1084 2.4512-8.6465 2.4512zm-6.6924-3.5205a13.715 13.715 0 0 0 6.6924 1.5205 13.704 13.704 0 0 0 6.6924 -1.5215 34.58 34.58 0 0 0 -6.6924 -8.2451 34.538 34.538 0 0 0 -6.6924 8.2461z" fill="#6d6daa"/>
<path d="m64.406 37.257a5.7544 5.7544 0 1 1 4.0703 -1.6836 5.7397 5.7397 0 0 1 -4.0703 1.6836zm0-9.5098a3.7554 3.7554 0 1 0 2.6562 1.0986 3.7448 3.7448 0 0 0 -2.6562 -1.0986z" fill="#6d6daa"/>
<path d="m64.5 47.726a3.5 3.5 0 0 0 -3.5 3.5v15.458a3.5 3.5 0 0 0 3.5 3.5 3.5 3.5 0 0 0 3.5 -3.5v-15.458a3.5 3.5 0 0 0 -3.5 -3.5z" fill="#c9c1f5"/>
<path d="m64.5 47.726a3.4996 3.4996 0 0 0 -3.4998 3.4998l-7e-5 4.6174a3.5 3.5 0 1 1 7 0l-7e-5 -4.6172a3.4999 3.4999 0 0 0 -3.5 -3.5z" fill="#fff" opacity=".5"/>
<path d="m64.5 71.185a4.5049 4.5049 0 0 1 -4.5 -4.5v-15.458a4.5 4.5 0 0 1 9 0v15.458a4.5049 4.5049 0 0 1 -4.5 4.5zm0-22.458a2.5023 2.5023 0 0 0 -2.5 2.5v15.458a2.5 2.5 0 0 0 5 0v-15.458a2.5023 2.5023 0 0 0 -2.5 -2.5z" fill="#6d6daa"/>
<path d="m11.596 79.686a4.8546 4.8546 0 0 0 3.2308 3.2308q2.4231 0.80768 0 1.6154a4.8546 4.8546 0 0 0 -3.2308 3.2308q-0.80768 2.423-1.6154 0a4.8546 4.8546 0 0 0 -3.2308 -3.2308q-2.4231-0.80768 0-1.6154a4.8546 4.8546 0 0 0 3.2308 -3.2307q0.80773-2.423 1.6154 0z" fill="#97c1ff"/>
<path d="m22.021 16.666a3.7452 3.7452 0 0 0 2.4925 2.4925q1.8693 0.6231 0 1.2462a3.7452 3.7452 0 0 0 -2.4924 2.4924q-0.6231 1.8693-1.2462 0a3.7452 3.7452 0 0 0 -2.4924 -2.4924q-1.8693-0.6231 0-1.2462a3.7452 3.7452 0 0 0 2.4924 -2.4924q0.62311-1.8694 1.2462-5e-5z" fill="#c9c1f5"/>
<path d="m118.37 60.641a4.6235 4.6235 0 0 0 3.0769 3.0769q2.3077 0.76922 0 1.5384a4.6235 4.6235 0 0 0 -3.0769 3.0769q-0.76922 2.3077-1.5385 0a4.6234 4.6234 0 0 0 -3.0769 -3.0769q-2.3077-0.76922 0-1.5384a4.6234 4.6234 0 0 0 3.0769 -3.0769q0.76927-2.3077 1.5385 0z" fill="#96d7ff"/>
<path d="m96.782 38.34a3.6988 3.6988 0 0 0 2.4615 2.4616q1.8462 0.61538 0 1.2308a3.6988 3.6988 0 0 0 -2.4615 2.4616q-0.61538 1.8461-1.2308 0a3.6987 3.6987 0 0 0 -2.4615 -2.4616q-1.8462-0.61538 0-1.2308a3.6987 3.6987 0 0 0 2.4615 -2.4616q0.61541-1.8461 1.2308 3e-5z" fill="#ff99b1"/>
<path d="m111.85 115.35a3.2364 3.2364 0 0 0 2.1538 2.1539q1.6154 0.53845 0 1.0769a3.2364 3.2364 0 0 0 -2.1538 2.1539q-0.53845 1.6154-1.0769 0a3.2364 3.2364 0 0 0 -2.1538 -2.1539q-1.6154-0.53845 0-1.0769a3.2364 3.2364 0 0 0 2.1538 -2.1539q0.53849-1.6154 1.0769 0z" fill="#ff99b1"/>
<g opacity=".3">
<circle cx="109" cy="20" r="6" fill="#c9c1f5"/>
<path d="m 109,17.6 a 5.98,5.98 0 0 1 5.70681,4.239 A 5.926,5.926 0 0 0 115,20 6,6 0 0 0 103,20 5.926,5.926 0 0 0 103.29319,21.839 5.98,5.98 0 0 1 109,17.6 Z" fill="#fff" opacity=".5"/>
<path d="m109 27a7 7 0 1 1 7 -7 7.0085 7.0085 0 0 1 -7 7zm0-12a5 5 0 1 0 5 5 5.0059 5.0059 0 0 0 -5 -5z" fill="#6d6daa"/>
<circle cx="28.5" cy="51.9" r="3.5" fill="#ff99b1"/>
<path d="m28.5 50.5a3.4883 3.4883 0 0 1 3.329 2.4728 3.4568 3.4568 0 0 0 0.171 -1.0728 3.5 3.5 0 0 0 -7 0 3.4568 3.4568 0 0 0 0.171 1.0728 3.4883 3.4883 0 0 1 3.329 -2.4728z" fill="#fff" opacity=".5"/>
<path d="m28.5 56.4a4.5 4.5 0 1 1 4.5 -4.5 4.5049 4.5049 0 0 1 -4.5 4.5zm0-7a2.5 2.5 0 1 0 2.5 2.5 2.5023 2.5023 0 0 0 -2.5 -2.5z" fill="#6d6daa"/>
</g>
</g>
<g transform="matrix(.4144 0 0 .4144 7.9182 43.72)">
<circle class="st0" cx="32" cy="32" r="24.5" fill="#e9eaeb"/>
<polyline class="st1" points="57 21 53.1 21 49 27 41 27" fill="none" stroke="#bcc0c4" stroke-miterlimit="10" stroke-width="2"/>
<line class="st1" x1="57" x2="41" y1="32" y2="32" fill="none" stroke="#bcc0c4" stroke-miterlimit="10" stroke-width="2"/>
<circle class="st1" cx="60" cy="21" r="3" fill="none" stroke="#bcc0c4" stroke-miterlimit="10" stroke-width="2"/>
<polyline class="st1" points="57 43 53.1 43 49.1 37 41 37" fill="none" stroke="#bcc0c4" stroke-miterlimit="10" stroke-width="2"/>
<circle class="st1" cx="60" cy="43" r="3" fill="none" stroke="#bcc0c4" stroke-miterlimit="10" stroke-width="2"/>
<circle class="st1" cx="60" cy="32" r="3" fill="none" stroke="#bcc0c4" stroke-miterlimit="10" stroke-width="2"/>
<line class="st1" x1="32" x2="32" y1="53" y2="37" fill="none" stroke="#bcc0c4" stroke-miterlimit="10" stroke-width="2"/>
<line class="st1" x1="41" x2="41" y1="53" y2="37" fill="none" stroke="#bcc0c4" stroke-miterlimit="10" stroke-width="2"/>
<line class="st1" x1="23" x2="23" y1="53" y2="37" fill="none" stroke="#bcc0c4" stroke-miterlimit="10" stroke-width="2"/>
<line class="st1" x1="32" x2="32" y1="9" y2="23" fill="none" stroke="#bcc0c4" stroke-miterlimit="10" stroke-width="2"/>
<circle class="st1" cx="32" cy="7" r="3" fill="none" stroke="#bcc0c4" stroke-miterlimit="10" stroke-width="2"/>
<line class="st1" x1="41" x2="41" y1="9" y2="23" fill="none" stroke="#bcc0c4" stroke-miterlimit="10" stroke-width="2"/>
<circle class="st1" cx="41" cy="7" r="3" fill="none" stroke="#bcc0c4" stroke-miterlimit="10" stroke-width="2"/>
<line class="st1" x1="23" x2="23" y1="9" y2="23" fill="none" stroke="#bcc0c4" stroke-miterlimit="10" stroke-width="2"/>
<circle class="st1" cx="23" cy="7" r="3" fill="none" stroke="#bcc0c4" stroke-miterlimit="10" stroke-width="2"/>
<polyline class="st1" points="7 21 10.9 21 15 27 23 27" fill="none" stroke="#bcc0c4" stroke-miterlimit="10" stroke-width="2"/>
<line class="st1" x1="7" x2="23" y1="32" y2="32" fill="none" stroke="#bcc0c4" stroke-miterlimit="10" stroke-width="2"/>
<circle class="st1" cx="4" cy="21" r="3" fill="none" stroke="#bcc0c4" stroke-miterlimit="10" stroke-width="2"/>
<polyline class="st1" points="7 43 10.9 43 14.9 37 23 37" fill="none" stroke="#bcc0c4" stroke-miterlimit="10" stroke-width="2"/>
<circle class="st1" cx="4" cy="43" r="3" fill="none" stroke="#bcc0c4" stroke-miterlimit="10" stroke-width="2"/>
<circle class="st1" cx="4" cy="32" r="3" fill="none" stroke="#bcc0c4" stroke-miterlimit="10" stroke-width="2"/>
<path class="st2" d="m45 41c0 1.7-1.3 3-3 3h-20c-1.7 0-3-1.3-3-3v-18c0-1.7 1.3-3 3-3h20c1.7 0 3 1.3 3 3z" fill="#a3d4ff" stroke="#2a5082" stroke-miterlimit="10" stroke-width="2"/>
<rect class="st3" x="27" y="27" width="10" height="10" fill="#fff" stroke="#2a5082" stroke-miterlimit="10" stroke-width="2"/>
<line class="st4" x1="23" x2="23" y1="27" y2="29" fill="none" stroke="#2a5082" stroke-miterlimit="10" stroke-width="2"/>
<line class="st4" x1="23" x2="23" y1="31" y2="33" fill="none" stroke="#2a5082" stroke-miterlimit="10" stroke-width="2"/>
<line class="st4" x1="23" x2="23" y1="35" y2="37" fill="none" stroke="#2a5082" stroke-miterlimit="10" stroke-width="2"/>
<line class="st4" x1="41" x2="41" y1="27" y2="29" fill="none" stroke="#2a5082" stroke-miterlimit="10" stroke-width="2"/>
<line class="st4" x1="41" x2="41" y1="31" y2="33" fill="none" stroke="#2a5082" stroke-miterlimit="10" stroke-width="2"/>
<line class="st4" x1="41" x2="41" y1="35" y2="37" fill="none" stroke="#2a5082" stroke-miterlimit="10" stroke-width="2"/>
<circle class="st1" cx="32" cy="56" r="3" fill="none" stroke="#bcc0c4" stroke-miterlimit="10" stroke-width="2"/>
<circle class="st1" cx="41" cy="56" r="3" fill="none" stroke="#bcc0c4" stroke-miterlimit="10" stroke-width="2"/>
<circle class="st1" cx="23" cy="56" r="3" fill="none" stroke="#bcc0c4" stroke-miterlimit="10" stroke-width="2"/>
</g>
<g transform="matrix(.37118 0 0 .37118 101.09 44.384)">
<path d="m35 41v20h-32v-20a6 6 0 0 1 6 -6h20a6 6 0 0 1 6 6z" fill="#fdb62f"/>
<path d="m15 31h8v4a4 4 0 0 1 -4 4 4 4 0 0 1 -4 -4z" fill="#ffdaaa"/>
<path d="m19 3a15 15 0 0 0 -15 15v13h30v-13a15 15 0 0 0 -15 -15z" fill="#784a42"/>
<path d="m9 19h-3a2 2 0 0 0 -2 2 2 2 0 0 0 2 2h3z" fill="#ffdaaa"/>
<path d="m29 19h3a2 2 0 0 1 2 2 2 2 0 0 1 -2 2h-3z" fill="#ffdaaa"/>
<path d="m30 22v-7h-22v7a11 11 0 0 0 11 11 11 11 0 0 0 11 -11z" fill="#ffe9cc"/>
<path d="m17 22h-2v-1a1 1 0 0 0 -2 0v1h-2v-1a3 3 0 0 1 6 0z" fill="#784a42"/>
<path d="m27 22h-2v-1a1 1 0 0 0 -2 0v1h-2v-1a3 3 0 0 1 6 0z" fill="#784a42"/>
<path d="m19 30a4 4 0 0 1 -4 -4v-1h2v1a2 2 0 0 0 4 0v-1h2v1a4 4 0 0 1 -4 4z" fill="#784a42"/>
<path d="m33 37h22a4 4 0 0 1 4 4v16h-30v-16a4 4 0 0 1 4 -4z" fill="#a7d6dd"/>
<path d="m27 57h34v2a2 2 0 0 1 -2 2h-30a2 2 0 0 1 -2 -2z" fill="#6cbbc7"/>
<polygon points="39.293 50.707 35.586 47 39.293 43.293 40.707 44.707 38.414 47 40.707 49.293" fill="#02998a"/>
<polygon points="48.707 50.707 47.293 49.293 49.586 47 47.293 44.707 48.707 43.293 52.414 47" fill="#02998a"/>
<rect transform="rotate(-71.556 44 47)" x="40.838" y="46" width="6.325" height="2" fill="#02998a"/>
<rect x="10" y="47" width="2" height="14" fill="#f5cf68"/>
</g>
<g transform="matrix(.32114 0 0 .32114 133.59 39.234)">
<rect x="43.208" y="22.833" width="5.834" height="64" fill="#7dbcc8"/>
<rect x="80.167" y="22.833" width="6" height="64" fill="#58b2c4"/>
<circle cx="46.167" cy="40.833" r="8" fill="#268a9c"/>
<circle cx="83.167" cy="51.833" r="7.875" fill="#278093"/>
<rect x="63.167" y="22.833" width="3" height="64" fill="#7dbcc8"/>
<rect x="66.167" y="22.833" width="2.916" height="64" fill="#58b2c4"/>
<path d="m58.167 69.833c0 4.418 3.582 8 8 8v-16c-4.418 0-8 3.583-8 8z" fill="#268a9c"/>
<path d="m66.167 61.833v16c4.418 0 8-3.582 8-8s-3.583-8-8-8z" fill="#278093"/>
</g>
<text x="20.918753" y="76.788216" fill="#000000" font-family="sans-serif" font-size="4.9389px" letter-spacing="0px" stroke-width=".26458" text-align="center" text-anchor="middle" word-spacing="0px" style="font-feature-settings:normal;font-variant-caps:normal;font-variant-ligatures:normal;font-variant-numeric:normal;line-height:1.25" xml:space="preserve"><tspan x="20.918753" y="76.788216" text-align="center" style="font-feature-settings:normal;font-variant-caps:normal;font-variant-ligatures:normal;font-variant-numeric:normal">Library, not</tspan><tspan x="20.918753" y="82.96183" text-align="center" style="font-feature-settings:normal;font-variant-caps:normal;font-variant-ligatures:normal;font-variant-numeric:normal">Framework</tspan></text>
<text x="68.275726" y="77.322754" fill="#000000" font-family="sans-serif" font-size="4.9389px" letter-spacing="0px" stroke-width=".26458" text-align="center" text-anchor="middle" word-spacing="0px" style="font-feature-settings:normal;font-variant-caps:normal;font-variant-ligatures:normal;font-variant-numeric:normal;line-height:1.25" xml:space="preserve"><tspan x="68.275726" y="77.322754">Production</tspan><tspan x="68.275726" y="83.496368">First</tspan></text>
<text x="112.69408" y="77.115318" fill="#000000" font-family="sans-serif" font-size="4.9389px" letter-spacing="0px" stroke-width=".26458" text-align="center" text-anchor="middle" word-spacing="0px" style="font-feature-settings:normal;font-variant-caps:normal;font-variant-ligatures:normal;font-variant-numeric:normal;line-height:1.25" xml:space="preserve"><tspan x="112.69408" y="77.115318">Human</tspan><tspan x="112.69408" y="83.288933">Friendly</tspan></text>
<text x="154.16357" y="77.322754" fill="#000000" font-family="sans-serif" font-size="4.9389px" letter-spacing="0px" stroke-width=".26458" text-align="center" text-anchor="middle" word-spacing="0px" style="font-feature-settings:normal;font-variant-caps:normal;font-variant-ligatures:normal;font-variant-numeric:normal;line-height:1.25" xml:space="preserve"><tspan x="154.16357" y="77.322754">Flexible</tspan></text>
</g>
<style type="text/css">.st0{fill:#E9EAEB;}
	.st1{fill:none;stroke:#BCC0C4;stroke-width:2;stroke-miterlimit:10;}
	.st2{fill:#A3D4FF;stroke:#2A5082;stroke-width:2;stroke-miterlimit:10;}
	.st3{fill:#FFFFFF;stroke:#2A5082;stroke-width:2;stroke-miterlimit:10;}
	.st4{fill:none;stroke:#2A5082;stroke-width:2;stroke-miterlimit:10;}</style>
</svg>
