<svg id="electronic_x5F_component" version="1.1" viewBox="0 0 64 64" xml:space="preserve" xmlns="http://www.w3.org/2000/svg"><style>.st1{fill:none;stroke:#bcc0c4;stroke-width:2;stroke-miterlimit:10}</style><circle cx="32" cy="32" r="24.5" fill="#e9eaeb"/><path class="st1" d="M57 21h-3.9L49 27h-8m16 5H41"/><circle class="st1" cx="60" cy="21" r="3"/><path class="st1" d="M57 43h-3.9l-4-6H41"/><circle class="st1" cx="60" cy="43" r="3"/><circle class="st1" cx="60" cy="32" r="3"/><path class="st1" d="M32 53V37m9 16V37M23 53V37m9-28v14"/><circle class="st1" cx="32" cy="7" r="3"/><path class="st1" d="M41 9v14"/><circle class="st1" cx="41" cy="7" r="3"/><path class="st1" d="M23 9v14"/><circle class="st1" cx="23" cy="7" r="3"/><path class="st1" d="M7 21h3.9l4.1 6h8M7 32h16"/><circle class="st1" cx="4" cy="21" r="3"/><path class="st1" d="M7 43h3.9l4-6H23"/><circle class="st1" cx="4" cy="43" r="3"/><circle class="st1" cx="4" cy="32" r="3"/><path d="M45 41c0 1.7-1.3 3-3 3H22c-1.7 0-3-1.3-3-3V23c0-1.7 1.3-3 3-3h20c1.7 0 3 1.3 3 3v18z" fill="#a3d4ff" stroke="#2a5082" stroke-width="2" stroke-miterlimit="10"/><path fill="#fff" stroke="#2a5082" stroke-width="2" stroke-miterlimit="10" d="M27 27h10v10H27z"/><path d="M23 27v2m0 2v2m0 2v2m18-10v2m0 2v2m0 2v2" stroke="#2a5082" fill="none" stroke-width="2" stroke-miterlimit="10"/><circle class="st1" cx="32" cy="56" r="3"/><circle class="st1" cx="41" cy="56" r="3"/><circle class="st1" cx="23" cy="56" r="3"/></svg>