<svg viewBox="0 0 64 64" xmlns="http://www.w3.org/2000/svg"><path d="M35 41v20H3V41a6 6 0 0 1 6-6h20a6 6 0 0 1 6 6z" fill="#fdb62f"/><path d="M15 31h8v4a4 4 0 0 1-4 4 4 4 0 0 1-4-4z" fill="#ffdaaa"/><path d="M19 3A15 15 0 0 0 4 18v13h30V18A15 15 0 0 0 19 3z" fill="#784a42"/><path d="M9 19H6a2 2 0 0 0-2 2 2 2 0 0 0 2 2h3zm20 0h3a2 2 0 0 1 2 2 2 2 0 0 1-2 2h-3z" fill="#ffdaaa"/><path d="M30 22v-7H8v7a11 11 0 0 0 11 11 11 11 0 0 0 11-11z" fill="#ffe9cc"/><path d="M17 22h-2v-1a1 1 0 0 0-2 0v1h-2v-1a3 3 0 0 1 6 0zm10 0h-2v-1a1 1 0 0 0-2 0v1h-2v-1a3 3 0 0 1 6 0zm-8 8a4 4 0 0 1-4-4v-1h2v1a2 2 0 0 0 4 0v-1h2v1a4 4 0 0 1-4 4z" fill="#784a42"/><path d="M33 37h22a4 4 0 0 1 4 4v16H29V41a4 4 0 0 1 4-4z" fill="#a7d6dd"/><path d="M27 57h34v2a2 2 0 0 1-2 2H29a2 2 0 0 1-2-2z" fill="#6cbbc7"/><path fill="#02998a" d="M39.293 50.707L35.586 47l3.707-3.707 1.414 1.414L38.414 47l2.293 2.293-1.414 1.414zm9.414 0l-1.414-1.414L49.586 47l-2.293-2.293 1.414-1.414L52.414 47l-3.707 3.707zm-6.656-1.024l2.001-6 1.898.633-2.001 6z"/><path fill="#f5cf68" d="M10 47h2v14h-2z"/></svg>