<svg xmlns="http://www.w3.org/2000/svg" viewBox="0 0 54.649 6.316" height="23.872" width="206.549"><g fill="#fff" stroke-width=".265"><g aria-label="GOURMET"><path d="M5.044 3.185h.436v2.33q-.41.392-.996.596-.579.205-1.228.205-.925 0-1.673-.41Q.845 5.499.418 4.778 0 4.057 0 3.158q0-.898.418-1.619.427-.72 1.165-1.13Q2.331 0 3.265 0q.685 0 1.254.222.578.214.988.632l-.285.302q-.392-.391-.88-.56Q3.86.418 3.273.418q-.8 0-1.45.356-.64.356-1.006.987-.364.623-.364 1.397 0 .765.364 1.397.374.622 1.015.987.64.356 1.44.356 1.068 0 1.771-.57zm4.241 3.131q-.917 0-1.655-.41-.738-.417-1.165-1.138-.419-.72-.419-1.61 0-.89.419-1.61.427-.72 1.165-1.13Q8.368 0 9.285 0q.916 0 1.654.41.739.408 1.157 1.129.427.72.427 1.619t-.427 1.62q-.418.72-1.157 1.129-.738.41-1.654.41zm0-.418q.782 0 1.414-.356.632-.356.996-.978.365-.632.365-1.406 0-.774-.365-1.397-.364-.631-.996-.987T9.285.418q-.783 0-1.424.356-.631.356-.996.987-.365.623-.365 1.397t.365 1.406q.365.622.996.978.64.356 1.424.356zm6.415.418q-1.183 0-1.842-.685-.65-.685-.65-2.001V.044h.455v3.568q0 1.147.524 1.717.525.569 1.522.569.987 0 1.512-.57.525-.569.525-1.716V.044h.454V3.63q0 1.316-.659 2.001-.658.685-1.841.685zm8.106-.044L22.32 4.19q-.329.044-.605.044h-1.779v2.038h-.454V.044h2.233q1.175 0 1.842.56.667.552.667 1.54 0 .738-.383 1.245-.373.499-1.076.703l1.557 2.18zm-2.09-2.438q.996 0 1.52-.436.525-.445.525-1.254 0-.81-.524-1.246-.525-.444-1.522-.444h-1.779v3.38zm9.233 2.438L30.94.943l-2.607 4.501h-.222L25.505.961v5.31h-.445V.045h.382l2.785 4.813L31.01.044h.374l.009 6.228zm6.07-.41v.41h-4.297V.044h4.163v.41h-3.71v2.455h3.319v.4h-3.318v2.553z"/><path d="M39.04.454h-2.242v-.41h4.937v.41h-2.242v5.818h-.453z"/></g><path d="M44.272 4.697q-.508 0-.983-.154-.469-.161-.739-.412l.238-.5q.257.23.655.378.405.142.829.142.559 0 .835-.187.277-.192.277-.507 0-.231-.155-.373-.147-.148-.372-.225-.219-.077-.624-.173-.507-.122-.822-.244-.308-.122-.533-.373-.219-.257-.219-.687 0-.36.187-.65.192-.288.578-.462.385-.173.957-.173.399 0 .784.102.386.103.662.296l-.212.514q-.283-.18-.604-.27-.321-.096-.63-.096-.546 0-.822.199-.27.2-.27.514 0 .231.154.379.154.141.38.225.23.077.622.167.508.122.816.244.309.122.527.373.225.25.225.674 0 .354-.193.65-.192.288-.584.462-.392.167-.964.167zm3.99 0q-.507 0-.983-.154-.469-.161-.738-.412l.237-.5q.257.23.656.378.404.142.828.142.56 0 .836-.187.276-.192.276-.507 0-.231-.154-.373-.148-.148-.373-.225-.218-.077-.623-.173-.508-.122-.822-.244-.309-.122-.534-.373-.218-.257-.218-.687 0-.36.186-.65.193-.288.578-.462.386-.173.958-.173.398 0 .783.102.386.103.662.296l-.212.514q-.282-.18-.604-.27-.321-.096-.63-.096-.545 0-.822.199-.27.2-.27.514 0 .231.155.379.154.141.379.225.231.077.623.167.507.122.816.244.308.122.527.373.225.25.225.674 0 .354-.193.65-.193.288-.585.462-.392.167-.964.167zm5.687-.052l-.97-1.38q-.18.012-.283.012h-1.111v1.368h-.643V.148h1.754q.874 0 1.375.418.501.417.501 1.15 0 .52-.257.886-.257.367-.732.534l1.066 1.51zm-1.272-1.914q.61 0 .931-.264.322-.263.322-.751 0-.489-.322-.746-.32-.263-.931-.263h-1.092v2.024z" aria-label="SSR"/></g></svg>