<svg width="480" height="70" viewBox="0 0 127 18.521" xmlns="http://www.w3.org/2000/svg"><path d="M30.265 9.28h.766v4.098q-.72.688-1.751 1.048-1.017.36-2.159.36-1.627 0-2.94-.72-1.299-.72-2.05-1.986-.735-1.267-.735-2.847t.735-2.847q.751-1.267 2.05-1.986 1.313-.72 2.956-.72 1.204 0 2.205.391 1.017.376 1.736 1.11l-.5.533q-.688-.689-1.549-.986-.844-.313-1.877-.313-1.407 0-2.55.626-1.126.626-1.767 1.736-.641 1.095-.641 2.456 0 1.345.641 2.456.657 1.095 1.783 1.736 1.126.626 2.534.626 1.877 0 3.113-1.001zm7.666 5.51q-1.611 0-2.91-.72-1.298-.735-2.049-2.002-.735-1.267-.735-2.83 0-1.565.735-2.832.751-1.267 2.05-1.987 1.298-.735 2.909-.735t2.91.72q1.298.72 2.033 1.986.75 1.267.75 2.847t-.75 2.847q-.735 1.267-2.034 1.986-1.298.72-2.909.72zm0-.735q1.377 0 2.487-.626t1.752-1.72q.641-1.111.641-2.472t-.641-2.456q-.641-1.11-1.752-1.736-1.11-.626-2.487-.626t-2.503.626q-1.11.626-1.752 1.736-.64 1.095-.64 2.456t.64 2.472q.642 1.094 1.752 1.72 1.127.626 2.503.626zm11.489.735q-2.08 0-3.238-1.204-1.142-1.205-1.142-3.52V3.762h.798v6.273q0 2.018.923 3.019.923 1 2.675 1 1.736 0 2.659-1 .923-1.001.923-3.02V3.763h.797v6.304q0 2.315-1.157 3.52Q51.5 14.79 49.42 14.79zm14.463-.08l-2.612-3.66q-.579.078-1.064.078H57.08v3.582h-.798V3.761h3.926q2.065 0 3.238.985 1.173.97 1.173 2.707 0 1.298-.672 2.19-.657.875-1.893 1.235l2.737 3.832zm-3.676-4.286q1.752 0 2.675-.766.923-.782.923-2.206t-.923-2.19q-.923-.782-2.675-.782H57.08v5.944zm16.445 4.286l-.016-9.37-4.583 7.915h-.39l-4.584-7.883v9.338h-.782V3.761h.673l4.896 8.462 4.896-8.462h.657l.015 10.949zm10.883-.72v.72H79.98V3.76h7.32v.72h-6.522v4.317h5.834v.704h-5.834v4.49zm3.763-9.51h-3.942v-.72h8.682v.72h-3.942v10.23h-.798zM102.41 14.8q-1.22 0-2.346-.391-1.11-.391-1.72-1.032l.453-.892q.594.594 1.58.97.985.36 2.033.36 1.47 0 2.206-.532.735-.548.735-1.408 0-.657-.407-1.048-.391-.391-.97-.594-.579-.22-1.61-.47-1.237-.313-1.972-.594-.735-.297-1.267-.892-.516-.594-.516-1.61 0-.83.438-1.502.438-.689 1.345-1.095.907-.407 2.253-.407.938 0 1.83.266.907.25 1.564.704l-.391.923q-.688-.454-1.47-.673-.783-.235-1.533-.235-1.44 0-2.175.563-.72.548-.72 1.424 0 .657.392 1.064.407.39 1.001.61.61.203 1.627.453 1.204.297 1.94.595.75.281 1.266.876.517.578.517 1.58 0 .828-.454 1.517-.438.672-1.36 1.079-.924.391-2.269.391zm9.07 0q-1.22 0-2.346-.391-1.11-.391-1.72-1.032l.453-.892q.594.594 1.58.97.985.36 2.033.36 1.47 0 2.206-.532.735-.548.735-1.408 0-.657-.407-1.048-.391-.391-.97-.594-.579-.22-1.61-.47-1.237-.313-1.972-.594-.735-.297-1.267-.892-.516-.594-.516-1.61 0-.83.438-1.502.438-.689 1.345-1.095.907-.407 2.253-.407.938 0 1.83.266.907.25 1.564.704l-.391.923q-.688-.454-1.47-.673-.783-.235-1.533-.235-1.44 0-2.175.563-.72.548-.72 1.424 0 .657.392 1.064.407.39 1.001.61.61.203 1.627.453 1.204.297 1.94.595.75.281 1.266.876.517.578.517 1.58 0 .828-.454 1.517-.438.672-1.36 1.079-.924.391-2.269.391zm13.52-.09l-2.503-3.52q-.422.047-.876.047h-2.94v3.473h-1.158V3.76h4.098q2.096 0 3.285 1.002 1.189 1.001 1.189 2.753 0 1.283-.657 2.174-.641.876-1.846 1.267l2.675 3.754zm-3.41-4.458q1.627 0 2.487-.72.86-.72.86-2.017 0-1.33-.86-2.034-.86-.72-2.487-.72h-2.91v5.491zM9.166.54a8.72 8.72 0 0 0-8.72 8.72 8.72 8.72 0 0 0 8.72 8.72 8.72 8.72 0 0 0 8.72-8.72A8.72 8.72 0 0 0 9.166.54zM6.31 6.608a.58.58 0 0 1 .416.999L5.058 9.253 6.726 10.9a.58.58 0 1 1-.815.826l-2.086-2.06a.58.58 0 0 1-.016-.016.58.58 0 0 1-.001-.002.58.58 0 0 1 .085-.875L5.91 6.781a.58.58 0 0 1 .4-.173zm5.603 0a.58.58 0 0 1 .417.173l2.02 1.994a.58.58 0 0 1 .066.891l-.006.006a.58.58 0 0 1 0 .001h-.002l-2.078 2.053a.58.58 0 1 1-.815-.825l1.668-1.647-1.668-1.647a.58.58 0 0 1 .398-.999zm-1.82.197a.58.58 0 0 1 .041 0 .58.58 0 0 1 .499.839l-1.797 3.723a.58.58 0 1 1-1.044-.504L9.588 7.14a.58.58 0 0 1 .506-.335z" fill="#fff"/></svg>