<svg width="290" height="130" viewBox="0 0 76.729 34.396" xmlns="http://www.w3.org/2000/svg"><path d="M9.913 5.982h.766v4.098q-.72.688-1.752 1.048-1.016.36-2.158.36-1.627 0-2.941-.72-1.298-.72-2.05-1.986-.734-1.267-.734-2.847t.735-2.847q.75-1.267 2.049-1.986 1.314-.72 2.956-.72 1.205 0 2.206.391 1.017.376 1.736 1.11l-.5.533q-.689-.689-1.549-.986-.845-.313-1.877-.313-1.408 0-2.55.626-1.126.626-1.767 1.736-.642 1.095-.642 2.456 0 1.345.642 2.456.657 1.095 1.783 1.736 1.126.626 2.534.626 1.877 0 3.113-1.001zm7.667 5.5q-1.612 0-2.91-.72-1.299-.735-2.05-2.002-.735-1.267-.735-2.83 0-1.565.736-2.832.75-1.267 2.049-1.987 1.298-.735 2.91-.735 1.61 0 2.909.72 1.298.72 2.033 1.986.75 1.267.75 2.847t-.75 2.847q-.735 1.267-2.033 1.987-1.299.72-2.91.72zm0-.735q1.376 0 2.486-.626 1.11-.626 1.752-1.72.641-1.111.641-2.472t-.64-2.456q-.642-1.11-1.753-1.736-1.11-.626-2.487-.626-1.376 0-2.503.626-1.11.626-1.751 1.736-.642 1.095-.642 2.456t.642 2.472q.64 1.094 1.751 1.72 1.127.626 2.503.626zm11.488.735q-2.08 0-3.238-1.204-1.142-1.205-1.142-3.52V.454h.798v6.273q0 2.018.923 3.019.923 1 2.675 1 1.736 0 2.659-1 .923-1.001.923-3.02V.455h.798v6.304q0 2.315-1.158 3.52-1.157 1.204-3.238 1.204zm14.463-.08l-2.612-3.66q-.579.078-1.064.078h-3.128v3.582h-.798V.453h3.926q2.065 0 3.238.985 1.173.97 1.173 2.707 0 1.298-.672 2.19-.657.875-1.893 1.235l2.737 3.832zm-3.676-4.286q1.752 0 2.675-.766.923-.782.923-2.206 0-1.423-.923-2.19-.923-.782-2.675-.782h-3.128v5.944zM56.3 11.402l-.015-9.37L51.7 9.947h-.39l-4.584-7.883v9.338h-.782V.453h.673l4.896 8.462L56.41.453h.657l.015 10.949zm10.883-.72v.72h-7.555V.452h7.32v.72h-6.522V5.49h5.834v.704h-5.834v4.49zm3.763-9.51h-3.942v-.72h8.682v.72h-3.942v10.23h-.798zM38.3 30.966q-1.22 0-2.346-.391-1.11-.391-1.72-1.032l.453-.892q.594.594 1.58.97.985.36 2.033.36 1.47 0 2.206-.532.735-.548.735-1.408 0-.657-.407-1.048-.39-.391-.97-.595-.578-.219-1.61-.469-1.236-.313-1.972-.594-.735-.297-1.267-.892-.516-.594-.516-1.61 0-.83.438-1.502.438-.689 1.345-1.095.908-.407 2.253-.407.938 0 1.83.266.907.25 1.564.704l-.39.923q-.69-.454-1.471-.673-.782-.235-1.533-.235-1.44 0-2.174.563-.72.548-.72 1.424 0 .657.391 1.064.407.39 1.001.61.61.203 1.627.453 1.204.297 1.94.595.75.281 1.267.876.516.578.516 1.58 0 .828-.454 1.517-.438.672-1.36 1.079-.924.391-2.269.391zm9.065 0q-1.22 0-2.346-.391-1.11-.391-1.72-1.032l.453-.892q.594.594 1.58.97.985.36 2.033.36 1.47 0 2.206-.532.735-.548.735-1.408 0-.657-.407-1.048-.39-.391-.97-.595-.578-.219-1.61-.469-1.236-.313-1.972-.594-.735-.297-1.267-.892-.516-.594-.516-1.61 0-.83.438-1.502.438-.689 1.345-1.095.908-.407 2.253-.407.938 0 1.83.266.907.25 1.564.704l-.39.923q-.69-.454-1.471-.673-.782-.235-1.533-.235-1.44 0-2.174.563-.72.548-.72 1.424 0 .657.391 1.064.407.39 1.001.61.61.203 1.627.453 1.204.297 1.94.595.75.281 1.267.876.516.578.516 1.58 0 .828-.454 1.517-.438.672-1.36 1.079-.924.391-2.269.391zm13.523-.1l-2.503-3.52q-.422.047-.875.047h-2.941v3.473H53.41v-10.95h4.099q2.096 0 3.284 1.002 1.19 1.001 1.19 2.753 0 1.283-.658 2.174-.641.876-1.846 1.267l2.675 3.754zm-3.41-4.458q1.627 0 2.487-.72.86-.72.86-2.017 0-1.33-.86-2.034-.86-.72-2.487-.72h-2.91v5.491zm-34.184-9.732a8.72 8.72 0 0 0-8.72 8.72 8.72 8.72 0 0 0 8.72 8.72 8.72 8.72 0 0 0 8.72-8.72 8.72 8.72 0 0 0-8.72-8.72zm-2.855 6.068a.58.58 0 0 1 .415.999l-1.668 1.646 1.668 1.647a.58.58 0 1 1-.815.826l-2.086-2.06a.58.58 0 0 1-.016-.016.58.58 0 0 1-.001-.002.58.58 0 0 1 .085-.875l2.018-1.992a.58.58 0 0 1 .4-.173zm5.602 0a.58.58 0 0 1 .417.173l2.02 1.994a.58.58 0 0 1 .066.891l-.006.006a.58.58 0 0 1 0 .001h-.002l-2.078 2.053a.58.58 0 1 1-.815-.825l1.668-1.647-1.668-1.647a.58.58 0 0 1 .398-.999zm-1.82.197a.58.58 0 0 1 .041 0 .58.58 0 0 1 .499.839l-1.796 3.723A.58.58 0 1 1 21.92 27l1.796-3.723a.58.58 0 0 1 .506-.335z" fill="#fff"/></svg>