<svg data-name="10" height="128" viewBox="0 0 128 128" width="128" xmlns="http://www.w3.org/2000/svg"><defs><clipPath id="a"><path d="M13.201 40.66a27.786 27.786 0 0 0-.116 31.815 18.236 18.236 0 0 1 3.19 11.363 34.279 34.279 0 0 0 53.02 30.546 18.896 18.896 0 0 1 15.799-2.341c14.259 4.214 31.353-4.104 34.088-24.487a15.376 15.376 0 0 0-1.15-7.347 19.059 19.059 0 0 1 .178-13.694 26.383 26.383 0 0 0-18.022-35.093 33.8 33.8 0 0 1-17.667-11.968 26.859 26.859 0 0 0-43.863 2.797 18.226 18.226 0 0 1-10.585 7.756 27.63 27.63 0 0 0-14.872 10.652z" fill="#c9c1f5" opacity=".3"/></clipPath></defs><path d="M13.201 40.66a27.786 27.786 0 0 0-.116 31.815 18.236 18.236 0 0 1 3.19 11.363 34.279 34.279 0 0 0 53.02 30.546 18.896 18.896 0 0 1 15.799-2.341c14.259 4.214 31.353-4.104 34.088-24.487a15.376 15.376 0 0 0-1.15-7.347 19.059 19.059 0 0 1 .178-13.694 26.383 26.383 0 0 0-18.022-35.093 33.8 33.8 0 0 1-17.667-11.968 26.859 26.859 0 0 0-43.863 2.797 18.226 18.226 0 0 1-10.585 7.756 27.63 27.63 0 0 0-14.872 10.652z" fill="#c9c1f5" opacity=".3"/><g clip-path="url(#a)"><path d="M126 125.938a63.78 63.78 0 0 0-124-2.157V127h124z" fill="#ff99b1"/><path d="M63.75 76A63.799 63.799 0 0 0 2 123.78V127h5.654a63.758 63.758 0 0 1 103.668-29.684A63.603 63.603 0 0 0 63.75 76z" fill="#fff" opacity=".5"/><path d="M126 127v-1.077a63.754 63.754 0 0 0-21.735-35.4 63.468 63.468 0 0 1 11.11 35.964c0 .172-.011.341-.012.513z" fill="#750000" opacity=".15"/><path d="M103.89 90.553c-19.532-13.629-51.195-7.548-74.051 15.309A81.717 81.717 0 0 0 14.489 127h21.32a143.157 143.157 0 0 1 7.3-7.869C64.942 97.296 90.083 85.93 103.89 90.553zM63.38 127h25.203c14.464-16.562 22.937-29.645 20.26-32.321-3.354-3.355-23.049 10.798-45.462 32.321zm45.47 0h11.475c.557-10.158-1.741-19.717-7.1-27.397 2.313 6.907.624 16.65-4.375 27.397z" opacity=".5" fill="#fedbc1"/><path d="M126 128H2a1 1 0 0 1-1-1v-3.219a.986.986 0 0 1 .032-.25 64.78 64.78 0 0 1 125.945 2.192 1 1 0 0 1 .023.215V127a1 1 0 0 1-1 1zM3 126h121.99A62.78 62.78 0 0 0 3 123.91z" fill="#6d6daa"/></g><path d="M54.931 72.931c-.804 6.9.913 13.929 4.428 18.129l5.047 6.032 5.048-6.032c3.514-4.2 5.231-11.23 4.428-18.129L72 60H57z" fill="#ff9797"/><path d="M59.267 70.291a28.669 28.669 0 0 0-.711 6.495c0 7.499 5.85 13.578 5.85 13.578s5.851-6.08 5.851-13.578a28.669 28.669 0 0 0-.712-6.495L68 62.5h-7z" fill="#fff27d"/><path d="M61.73 70.291a14.934 14.934 0 0 0-.371 3.383c0 3.907 3.047 7.074 3.047 7.074s3.048-3.167 3.048-7.074a14.934 14.934 0 0 0-.37-3.383L66 64.787h-3z" fill="#fff"/><path d="M52.414 59.344l-.57-10.348c-4.845 2.307-8.057 6.351-8.366 10.917l-.569 8.408c-.097 1.443 2.426 1.973 3.247.677a26.469 26.469 0 0 1 7.162-7.983 2.315 2.315 0 0 1-.904-1.671z" fill="#c9c1f5"/><path d="M45.52 69.526l.48-7.09c.257-3.788 2.53-7.2 6.056-9.575l-.212-3.865c-4.845 2.307-8.057 6.351-8.366 10.917l-.569 8.408c-.079 1.168 1.55 1.718 2.612 1.205z" fill="#fff" opacity=".5"/><path d="M85.335 59.913c-.309-4.566-3.521-8.61-8.366-10.917l-.57 10.348a2.315 2.315 0 0 1-.904 1.671 26.47 26.47 0 0 1 7.162 7.983c.82 1.296 3.344.766 3.247-.677z" fill="#c9c1f5"/><path d="M76.969 48.996l-.224 4.067c3.63 2.379 5.973 5.846 6.233 9.698l.463 6.84c1.06.392 2.538-.167 2.463-1.28l-.57-8.408c-.308-4.566-3.52-8.61-8.365-10.917z" fill="#fff" opacity=".5"/><path d="M62.017 54.651c-5.61-.444-10.103-2.257-10.103-4.43h-.003l.503 9.123c0 2.158 4.265 3.96 9.603 4.419zm4.778 9.112c5.339-.46 9.604-2.261 9.604-4.42l.502-9.123-.002.002c0 2.172-4.493 3.985-10.104 4.43z" fill="#9eb2cc"/><path d="M66.795 63.763c5.339-.46 9.604-2.261 9.604-4.42l.502-9.123-.002.002c0 2.172-4.493 3.985-10.104 4.43z" fill="#9eb2cc"/><path d="M64.406 6.43A38.195 38.195 0 0 0 51.72 30.443a50.041 50.041 0 0 0-.377 9.469l.568 10.308.003.002c0 2.172 4.492 3.985 10.103 4.43v-4.028a2.389 2.389 0 0 1 4.778 0v4.027c5.611-.444 10.104-2.257 10.104-4.43h.003l.567-10.31a50.036 50.036 0 0 0-.376-9.468A38.195 38.195 0 0 0 64.406 6.43z" fill="#eef6ff"/><path d="M64.406 18.524c3.408 0 6.387-.894 8.014-2.225a35.724 35.724 0 0 0-8.014-9.87 35.725 35.725 0 0 0-8.014 9.87c1.628 1.33 4.606 2.225 8.014 2.225z" fill="#c9c1f5"/><path d="M64.297 7.508q.054-.554.11-1.078l-.01.008q-.359.52-.703 1.07c-.108.172-.211.352-.317.529-.12.199-.24.395-.357.6-.142.248-.279.505-.417.762-.073.137-.149.27-.221.41-.16.306-.314.62-.468.937l-.135.276c-.169.355-.333.719-.494 1.087l-.074.165q-.259.596-.503 1.212l-.033.082q-.257.647-.498 1.316l-.007.02q-.247.683-.477 1.387v.001c-.156.475-.284.979-.428 1.466a16.39 16.39 0 0 0 4.318.74c.032-.743.063-1.492.099-2.206v-.001q.035-.704.073-1.388l.001-.02q.038-.667.077-1.315l.005-.082q.038-.615.077-1.212l.012-.165c.024-.368.05-.732.076-1.087l.02-.276.072-.937.034-.41.065-.763c.017-.204.036-.4.055-.6l.048-.528z" fill="#fff" opacity=".5"/><path d="M64.406 6.43l.001-.007-.01.015zm-5.141 11.328a62.365 62.365 0 0 0-2.321 12.678 84.836 84.836 0 0 0-.222 9.469l.334 10.308.118 3.648a27.964 27.964 0 0 0 4.843.79l1.26-4.438-.052-10.308c-.016-3.163-.005-6.337.034-9.469.052-4.228.165-8.244.324-11.939a16.39 16.39 0 0 1-4.318-.739z" fill="#fff" opacity=".75"/><path d="M62.017 54.651a27.964 27.964 0 0 1-4.843-.79l.178 5.476c0 1.926 2.003 3.561 4.665 4.219z" fill="#fff" opacity=".5"/><path d="M77.093 30.436a40.005 40.005 0 0 0-5.484-15.534l-.01-.016q-.412-.67-.848-1.32l-.055-.078q-.417-.617-.857-1.214c-.04-.056-.083-.11-.124-.164a35.902 35.902 0 0 0-.842-1.088c-.075-.093-.153-.183-.229-.275a35.446 35.446 0 0 0-.795-.938c-.122-.138-.248-.27-.372-.406-.236-.258-.47-.517-.713-.768-.194-.2-.394-.39-.592-.585-.185-.18-.365-.366-.554-.543q-.593-.557-1.21-1.084h-.001q.364.526.712 1.084c.111.177.218.362.326.543.117.195.235.386.348.585.143.25.281.51.42.768.073.136.147.268.22.406.159.306.313.621.467.938l.135.275c.169.356.333.72.495 1.088l.073.164q.259.596.504 1.214l.032.079q.257.649.499 1.319l.006.016a60.288 60.288 0 0 1 3.227 15.534 84.808 84.808 0 0 1 .221 9.469l-.334 10.308-.295 9.124c0 2.158-2.51 3.96-5.65 4.419h.983c5.339-.459 9.604-2.261 9.604-4.42l.502-9.123.568-10.308a50.033 50.033 0 0 0-.377-9.469z" fill="#2c4b75" opacity=".2"/><circle cx="64.406" cy="31.502" r="4.757" transform="rotate(-45 64.406 31.502)" fill="#96d7ff"/><path d="M63.565 30.662a4.753 4.753 0 0 1 5.217-1.012 4.757 4.757 0 1 0-6.229 6.228 4.753 4.753 0 0 1 1.012-5.216z" fill="#2c4b75" opacity=".2"/><path d="M61.043 28.139a4.738 4.738 0 0 0 3.798 8.078v-9.43a4.726 4.726 0 0 0-3.798 1.352z" fill="#fff" opacity=".5"/><path d="M64.406 98.092a.997.997 0 0 1-.766-.359l-5.048-6.032c-3.712-4.436-5.495-11.673-4.654-18.885a.99.99 0 0 1 1.109-.878 1 1 0 0 1 .877 1.11c-.767 6.584.882 13.402 4.201 17.37l4.281 5.115 4.281-5.115c3.32-3.967 4.97-10.785 4.202-17.37a1 1 0 0 1 .877-1.11.987.987 0 0 1 1.109.878c.84 7.213-.942 14.45-4.654 18.885l-5.048 6.032a.997.997 0 0 1-.767.359zM44.667 70.735a3.334 3.334 0 0 1-1.024-.16 2.306 2.306 0 0 1-1.732-2.321l.568-8.408c.33-4.853 3.67-9.246 8.935-11.753a1 1 0 0 1 1.428.848l.57 10.348a.964.964 0 0 1 .002.055 1.478 1.478 0 0 0 .573.928 1.001 1.001 0 0 1-.115 1.576A25.163 25.163 0 0 0 47 69.533a2.678 2.678 0 0 1-2.333 1.202zm6.265-20.125c-3.825 2.245-6.205 5.666-6.456 9.37l-.569 8.409c-.009.13.23.243.357.285a.962.962 0 0 0 1.047-.211 29.015 29.015 0 0 1 6.545-7.63 2.799 2.799 0 0 1-.442-1.458zm33.214 20.125a2.678 2.678 0 0 1-2.333-1.202 25.165 25.165 0 0 0-6.873-7.685 1.001 1.001 0 0 1-.115-1.576 1.483 1.483 0 0 0 .574-.93l.572-10.4a1 1 0 0 1 1.427-.85c5.267 2.508 8.607 6.901 8.935 11.754l.568 8.408a2.306 2.306 0 0 1-1.731 2.32 3.334 3.334 0 0 1-1.024.161zm-7.188-9.901a29.008 29.008 0 0 1 6.544 7.629.964.964 0 0 0 1.047.21c.127-.041.365-.154.356-.284l-.568-8.409c-.25-3.704-2.632-7.125-6.455-9.37l-.484 8.788a2.689 2.689 0 0 1-.44 1.436z" fill="#6d6daa"/><path d="M62.019 64.763a.882.882 0 0 1-.087-.004c-5.236-.45-10.518-2.299-10.518-5.415l-.5-9.069a1.001 1.001 0 1 1 2-.053c0 1.105 3.27 2.965 9.183 3.432a1 1 0 1 1-.159 1.994c-3.362-.266-6.742-1.062-8.856-2.363l.33 6.004c.002 1.149 3.097 2.996 8.692 3.478a1 1 0 0 1-.085 1.996zm4.775 0a1 1 0 0 1-.085-1.996c5.595-.482 8.69-2.33 8.69-3.423l.332-6.059c-2.114 1.3-5.495 2.097-8.857 2.363a1 1 0 1 1-.158-1.994c5.913-.467 9.182-2.327 9.182-3.432a1.001 1.001 0 1 1 2.001.052l-.502 9.124c.001 3.062-5.282 4.91-10.516 5.36a.867.867 0 0 1-.087.005z" fill="#6d6daa"/><path d="M66.794 55.651a1 1 0 0 1-.078-1.997c5.913-.467 9.182-2.327 9.182-3.432a.957.957 0 0 1 .01-.13l.564-10.235a49.09 49.09 0 0 0-.37-9.279 37.12 37.12 0 0 0-11.696-22.82 37.12 37.12 0 0 0-11.695 22.82 49.293 49.293 0 0 0-.37 9.28l.564 10.234a.957.957 0 0 1 .01.13c0 1.105 3.269 2.965 9.182 3.432a1 1 0 1 1-.159 1.994c-5.431-.43-10.912-2.244-11.022-5.332a.29.29 0 0 1-.003-.04l-.568-10.31a51.247 51.247 0 0 1 .384-9.656A38.98 38.98 0 0 1 63.758 5.668a1 1 0 0 1 1.297 0 38.98 38.98 0 0 1 13.029 24.64 51.144 51.144 0 0 1 .384 9.659l-.569 10.307a.29.29 0 0 1-.002.041c-.109 3.09-5.59 4.903-11.023 5.333a1.103 1.103 0 0 1-.08.003z" fill="#6d6daa"/><path d="M64.406 19.524c-3.537 0-6.77-.916-8.646-2.45a1 1 0 0 1-.241-1.26 36.608 36.608 0 0 1 8.239-10.146 1 1 0 0 1 1.297 0 36.589 36.589 0 0 1 8.239 10.145 1 1 0 0 1-.241 1.26c-1.876 1.535-5.109 2.451-8.647 2.451zm-6.692-3.52a13.715 13.715 0 0 0 6.692 1.52 13.704 13.704 0 0 0 6.693-1.521 34.58 34.58 0 0 0-6.693-8.245 34.538 34.538 0 0 0-6.692 8.246zm6.692 21.253a5.754 5.754 0 1 1 4.07-1.684 5.74 5.74 0 0 1-4.07 1.684zm0-9.51a3.755 3.755 0 1 0 2.656 1.099 3.745 3.745 0 0 0-2.656-1.099z" fill="#6d6daa"/><path d="M64.5 47.726a3.5 3.5 0 0 0-3.5 3.5v15.458a3.5 3.5 0 0 0 3.5 3.5 3.5 3.5 0 0 0 3.5-3.5V51.226a3.5 3.5 0 0 0-3.5-3.5z" fill="#c9c1f5"/><path d="M64.5 47.726a3.5 3.5 0 0 0-3.5 3.5v4.617a3.5 3.5 0 1 1 7 0v-4.617a3.5 3.5 0 0 0-3.5-3.5z" fill="#fff" opacity=".5"/><path d="M64.5 71.185a4.505 4.505 0 0 1-4.5-4.5V51.227a4.5 4.5 0 0 1 9 0v15.458a4.505 4.505 0 0 1-4.5 4.5zm0-22.458a2.502 2.502 0 0 0-2.5 2.5v15.458a2.5 2.5 0 0 0 5 0V51.227a2.502 2.502 0 0 0-2.5-2.5z" fill="#6d6daa"/><path d="M11.596 79.686a4.855 4.855 0 0 0 3.23 3.23q2.424.808 0 1.616a4.855 4.855 0 0 0-3.23 3.23q-.808 2.424-1.615 0a4.855 4.855 0 0 0-3.231-3.23q-2.423-.808 0-1.615a4.855 4.855 0 0 0 3.23-3.231q.808-2.423 1.616 0z" fill="#97c1ff"/><path d="M22.02 16.666a3.745 3.745 0 0 0 2.493 2.493q1.87.623 0 1.246a3.745 3.745 0 0 0-2.492 2.493q-.624 1.869-1.247 0a3.745 3.745 0 0 0-2.492-2.493q-1.87-.623 0-1.246a3.745 3.745 0 0 0 2.492-2.492q.623-1.87 1.247 0z" fill="#c9c1f5"/><path d="M118.372 60.641a4.623 4.623 0 0 0 3.077 3.077q2.307.77 0 1.538a4.623 4.623 0 0 0-3.077 3.077q-.77 2.308-1.539 0a4.623 4.623 0 0 0-3.077-3.077q-2.307-.769 0-1.538a4.623 4.623 0 0 0 3.077-3.077q.77-2.308 1.539 0z" fill="#96d7ff"/><path d="M96.782 38.34a3.699 3.699 0 0 0 2.462 2.461q1.846.616 0 1.231a3.699 3.699 0 0 0-2.462 2.462q-.615 1.846-1.23 0a3.699 3.699 0 0 0-2.462-2.462q-1.846-.615 0-1.23a3.699 3.699 0 0 0 2.461-2.462q.616-1.846 1.231 0zm15.064 77.006A3.236 3.236 0 0 0 114 117.5q1.615.538 0 1.077a3.236 3.236 0 0 0-2.154 2.154q-.538 1.615-1.077 0a3.236 3.236 0 0 0-2.154-2.154q-1.615-.539 0-1.077a3.236 3.236 0 0 0 2.154-2.154q.539-1.615 1.077 0z" fill="#ff99b1"/><g opacity=".3"><circle cx="109" cy="20" r="6" fill="#c9c1f5"/><path d="M109 17.6a5.98 5.98 0 0 1 5.707 4.239A5.926 5.926 0 0 0 115 20a6 6 0 0 0-12 0 5.926 5.926 0 0 0 .293 1.839A5.98 5.98 0 0 1 109 17.6z" fill="#fff" opacity=".5"/><path d="M109 27a7 7 0 1 1 7-7 7.008 7.008 0 0 1-7 7zm0-12a5 5 0 1 0 5 5 5.006 5.006 0 0 0-5-5z" fill="#6d6daa"/><circle cx="28.5" cy="51.9" r="3.5" fill="#ff99b1"/><path d="M28.5 50.5a3.488 3.488 0 0 1 3.329 2.473A3.457 3.457 0 0 0 32 51.9a3.5 3.5 0 0 0-7 0 3.457 3.457 0 0 0 .171 1.073A3.488 3.488 0 0 1 28.5 50.5z" fill="#fff" opacity=".5"/><path d="M28.5 56.4a4.5 4.5 0 1 1 4.5-4.5 4.505 4.505 0 0 1-4.5 4.5zm0-7a2.5 2.5 0 1 0 2.5 2.5 2.502 2.502 0 0 0-2.5-2.5z" fill="#6d6daa"/></g></svg>